<?xml version="1.0" encoding="UTF-8" standalone="no"?>
<svg
   xmlns:dc="http://purl.org/dc/elements/1.1/"
   xmlns:cc="http://creativecommons.org/ns#"
   xmlns:rdf="http://www.w3.org/1999/02/22-rdf-syntax-ns#"
   xmlns:svg="http://www.w3.org/2000/svg"
   xmlns="http://www.w3.org/2000/svg"
   xmlns:sodipodi="http://sodipodi.sourceforge.net/DTD/sodipodi-0.dtd"
   xmlns:inkscape="http://www.inkscape.org/namespaces/inkscape"
   version="1.1"
   id="svg2"
   width="449.60001"
   height="189.12"
   viewBox="0 0 449.60001 189.12"
   sodipodi:docname="WBM_UL_RGB_digital.svg"
   inkscape:version="1.0.1 (3bc2e813f5, 2020-09-07)">
  <metadata
     id="metadata8">
    <rdf:RDF>
      <cc:Work
         rdf:about="">
        <dc:format>image/svg+xml</dc:format>
        <dc:type
           rdf:resource="http://purl.org/dc/dcmitype/StillImage" />
        <dc:title></dc:title>
      </cc:Work>
    </rdf:RDF>
  </metadata>
  <defs
     id="defs6" />
  <sodipodi:namedview
     pagecolor="#ffffff"
     bordercolor="#666666"
     borderopacity="1"
     objecttolerance="10"
     gridtolerance="10"
     guidetolerance="10"
     inkscape:pageopacity="0"
     inkscape:pageshadow="2"
     inkscape:window-width="1920"
     inkscape:window-height="1137"
     id="namedview4"
     showgrid="false"
     inkscape:zoom="1.6623929"
     inkscape:cx="193.99247"
     inkscape:cy="112.96806"
     inkscape:window-x="-8"
     inkscape:window-y="-8"
     inkscape:window-maximized="1"
     inkscape:current-layer="g10" />
  <g
     inkscape:groupmode="layer"
     inkscape:label="Image"
     id="g10">
    <path
       style="fill:#000000;stroke-width:0.32"
       d="M 111.53851,150.96052 C 98.269309,149.25389 85.840537,143.11165 76.220876,133.50673 67.651046,124.95002 62.058652,114.58057 59.503455,102.5092 58.386774,97.233742 58.08807,87.610725 58.872703,82.189202 62.440306,57.538488 80.026649,37.755864 103.96026,31.470853 c 9.27876,-2.436621 20.69456,-2.446861 30.25457,-0.02714 15.0545,3.810429 28.55736,13.825514 36.93382,27.393853 14.2356,23.059082 11.0248,53.607484 -7.70483,73.305574 -9.94958,10.46405 -22.31323,16.85418 -36.18167,18.70045 -3.66386,0.48776 -12.33883,0.55228 -15.72364,0.11694 z m 12.8,-0.76492 c 8.93758,-0.56517 19.51391,-4.18279 27.36,-9.35845 13.84374,-9.13199 22.82594,-22.36495 26.30933,-38.76 0.79417,-3.737858 0.86005,-4.624018 0.86005,-11.567948 0,-6.95833 -0.0648,-7.824877 -0.86693,-11.601901 -2.13201,-10.038566 -6.27894,-18.850208 -12.38579,-26.318099 -2.72244,-3.329181 -8.41117,-8.66935 -11.84756,-11.121622 -3.88379,-2.771549 -11.31495,-6.514711 -15.88847,-8.003213 -9.745,-3.171616 -20.71828,-3.828679 -30.53411,-1.828343 -24.828074,5.059639 -43.71802,25.017543 -47.502624,50.188218 -0.670388,4.458611 -0.674941,12.895312 -0.0093,17.29589 3.556144,23.511048 20.282182,42.581868 43.065444,49.102648 5.20466,1.48962 12.83398,2.4875 17.12,2.2392 0.704,-0.0408 2.648,-0.16066 4.32,-0.26638 z m -11.5027,-1.49368 C 100.32907,147.39585 88.031523,141.6063 78.620566,132.59377 64.11558,118.70288 57.732559,97.783292 61.983846,78.068888 63.509433,70.994303 67.208278,62.614847 71.465372,56.589202 74.100969,52.85868 81.305571,45.584693 84.861469,43.064095 95.376141,35.610764 106.76552,31.946178 119.37851,31.958076 c 9.00972,0.0085 16.92129,1.862118 25.28,5.922912 7.22025,3.507708 13.26498,8.1004 18.39512,13.976323 17.56059,20.113427 19.45106,49.031179 4.65016,71.131889 -12.17912,18.18588 -33.09289,27.98668 -54.86798,25.71272 z m 4.54924,-2.15684 c -0.82766,-1.4824 -0.95722,-1.5742 -2.47991,-1.75721 -0.88365,-0.10621 -2.11063,-0.19618 -2.72663,-0.19994 -1.48648,-0.009 -6.88683,1.64473 -6.33943,1.94138 0.83351,0.4517 7.76188,1.43791 10.73934,1.52868 l 1.67991,0.0512 z m 8.87346,1.09803 c 1.848,-0.24947 4.152,-0.63109 5.12,-0.84803 l 1.76,-0.39445 -2.72,-0.89202 c -2.7159,-0.89068 -5.03295,-1.11184 -7.45512,-0.71156 -0.96569,0.15958 -1.40908,0.4827 -2.16,1.57413 -0.51968,0.75533 -0.94488,1.45539 -0.94488,1.55568 0,0.31602 2.91427,0.18682 6.4,-0.28375 z m -4.1894,-3.57603 0.89849,-0.1797 -0.75454,-0.75454 c -0.93843,-0.93843 -0.95448,-1.64957 -0.0588,-2.60302 l 0.69581,-0.74062 h -3.57578 -3.57578 v 1.12 c 0,0.98133 0.099,1.12 0.8,1.12 0.49778,0 0.8,0.18133 0.8,0.48 0,0.29867 -0.30222,0.48 -0.8,0.48 -1.00577,0 -1.067,0.82242 -0.08,1.07451 0.43509,0.11113 1.08139,0.83173 1.63327,1.82103 l 0.91326,1.63713 1.10279,-1.63754 c 0.76477,-1.13563 1.37818,-1.69263 2.00128,-1.81725 z m -15.8418,1.06896 2.17346,-0.73317 0.0489,-2.29237 0.0489,-2.29238 -1.00392,0.97335 c -1.09903,1.06555 -1.89962,0.72453 -0.89783,-0.38243 0.55052,-0.60838 0.51184,-0.61984 -2.0925,-0.61984 h -2.65338 l 1.48378,1.58629 c 1.54729,1.65417 1.81432,2.25371 1.00379,2.25371 -0.264,0 -0.48,-0.1286 -0.48,-0.28576 0,-0.48462 -0.97337,-0.6896 -1.62318,-0.34183 -0.79752,0.42682 -0.78721,1.41719 0.0232,2.22759 0.81553,0.81552 1.30937,0.80393 3.9688,-0.0932 z m 29.89827,0.22222 c 0.85084,-0.59595 0.8463,-1.94835 -0.008,-2.48333 -0.40953,-0.25636 -0.68826,-0.2058 -1.1452,0.20772 -1.54266,1.3961 -1.35718,0.17156 0.26552,-1.75285 l 1.29871,-1.5406 h -1.84305 c -1.43348,0 -1.75771,0.0853 -1.45905,0.384 0.6926,0.6926 0.40443,1.75077 -0.8646,3.17484 l -1.2486,1.40116 1.4886,0.5352 c 1.91363,0.68801 2.61773,0.7028 3.51567,0.0739 z m -36.858665,-2.03042 c -1.506313,-1.61037 -1.802537,-2.45651 -1.104403,-3.15464 0.298666,-0.29867 -0.643555,-0.38319 -4.24,-0.38034 l -4.624,0.004 2.08,1.15799 c 1.144,0.6369 3.232,1.64961 4.64,2.25047 1.408,0.60086 2.992,1.28485 3.52,1.51998 0.527998,0.23513 1.017778,0.375 1.088408,0.31081 0.0706,-0.0642 -0.54138,-0.83276 -1.360005,-1.70793 z m 46.111595,-1.57777 c 1.804,-0.90569 3.28,-1.71739 3.28,-1.80379 0,-0.0864 -1.8684,-0.15708 -4.152,-0.15708 h -4.152 l 0.18277,0.91383 c 0.14092,0.70459 -0.0275,1.16252 -0.73586,2 -1.99959,2.36431 -2.00769,2.31545 0.24343,1.46741 1.12951,-0.42551 3.52966,-1.51468 5.33366,-2.42037 z m -13.70069,1.02668 1.31371,-1.49245 -0.70397,-0.74934 -0.70398,-0.74935 -0.74206,0.69713 c -0.68449,0.64304 -0.70242,0.74091 -0.23118,1.26163 0.82143,0.90767 0.19347,1.41773 -0.70559,0.57311 -0.90641,-0.85153 -0.94414,-1.16131 -0.23664,-1.94308 0.50849,-0.56188 0.43611,-0.5852 -1.81578,-0.5852 h -2.34538 l 0.69578,0.74062 c 0.90117,0.95926 0.87712,1.43509 -0.12547,2.48156 l -0.82124,0.85719 0.74124,-0.13652 c 0.40769,-0.0751 1.31725,6.4e-4 2.02125,0.16817 2.0872,0.49684 2.28709,0.43547 3.65931,-1.12347 z m -16.94056,0.61245 c 8.4e-4,-0.26684 -0.53141,-0.4 -1.59875,-0.4 -0.88,0 -1.6,-0.082 -1.6,-0.18234 0,-0.10029 0.43892,-0.82029 0.97538,-1.6 l 0.97537,-1.41766 h -2.09537 -2.09538 v 2.03049 2.03048 l 2.71875,-0.0305 c 1.94468,-0.0218 2.7191,-0.14437 2.72,-0.43049 z m -13.65982,-0.42375 c 0.0955,-0.36506 0.48181,-0.74435 0.85854,-0.84287 0.65807,-0.17209 0.64397,-0.22143 -0.35902,-1.25625 -1.09611,-1.1309 -1.813958,-1.33362 -2.454448,-0.69313 -0.590909,0.59091 -0.464054,1.19166 0.496,2.34898 1.046658,1.26172 1.230308,1.31752 1.458928,0.44327 z m 24.05901,-0.2941 0.91767,-0.95784 -0.75358,-0.80216 c -0.89378,-0.95138 -1.20639,-0.97744 -2.16203,-0.18021 -0.90081,0.75148 -0.90605,1.21876 -0.0242,2.15744 0.88092,0.93769 0.91967,0.93353 2.02216,-0.21723 z m 14.56206,-1.6604 c 0,-0.60653 -0.64663,-1.22175 -1.28413,-1.22175 -0.28387,0 -0.91247,0.41369 -1.39688,0.91931 l -0.88075,0.9193 0.90088,0.9207 0.90088,0.92069 0.88,-1.00225 c 0.484,-0.55123 0.88,-1.20643 0.88,-1.456 z m -24.97017,-0.18175 c -0.01,-1.14508 -0.0328,-1.17071 -0.50345,-0.56 -1.11217,1.443 -1.16578,1.76 -0.29764,1.76 0.72593,0 0.81019,-0.12622 0.80109,-1.2 z m -26.955627,-3.36 c -0.07397,-1.35582 -0.07052,-1.3603 1.125799,-1.45932 l 1.2,-0.0993 v -3.6106 -3.61059 l -1.552589,-1.30916 c -8.21425,-6.92636 -13.713827,-16.24501 -16.09449,-27.27102 -1.040682,-4.819905 -1.03656,-13.681464 0.0086,-18.559998 2.140704,-9.991907 6.2336,-17.468 13.543684,-24.738925 l 4.121001,-4.098925 -0.09312,-2.461075 c -0.08942,-2.363376 -0.12391,-2.46135 -0.868768,-2.468016 -1.104457,-0.0099 -1.208294,-0.725558 -0.123325,-0.849974 0.888596,-0.101895 0.898973,-0.128602 0.898973,-2.313751 0,-1.482665 0.131725,-2.255452 0.4,-2.346668 0.2816,-0.09574 0.4,0.298134 0.4,1.330668 0,0.806666 0.06002,1.466666 0.133367,1.466666 0.07335,0 2.017353,-1.023171 4.32,-2.273712 l 4.186627,-2.273709 V 38.4755 c 0,-1.577018 0.106723,-2.046288 0.465379,-2.046288 0.350499,0 0.488739,0.520365 0.559999,2.10801 l 0.0946,2.108012 4.13794,1.891988 c 2.27586,1.040595 4.21986,1.89199 4.32,1.89199 0.10013,0 0.18206,-1.008 0.18206,-2.24 0,-1.578666 -0.11809,-2.24 -0.4,-2.24 -0.26074,0 -0.4,-0.501334 -0.4,-1.44 0,-1.196384 0.10185,-1.44 0.60202,-1.44 0.33111,0 0.98816,-0.506256 1.46011,-1.125011 0.47195,-0.618755 1.60487,-1.551517 2.51761,-2.072803 l 1.65952,-0.947792 -1.27963,0.182294 c -7.18683,1.02382 -12.16235,2.349212 -17.114778,4.559084 C 89.523193,40.636866 84.417433,44.070428 79.2847,49.0291 70.480956,57.534293 64.98302,67.68189 62.532281,79.949202 61.547519,84.878485 61.470204,95.302623 62.38157,100.2692 c 1.61178,8.78355 4.874641,16.52277 10.04906,23.83548 2.697053,3.8116 8.617222,9.83519 12.387882,12.60429 1.584,1.16326 2.913392,2.11619 2.954201,2.11763 0.04081,10e-4 0.04081,-0.6094 0,-1.3574 z m -6.480483,-9.53016 c -0.124275,-0.20108 -0.07538,-0.51618 0.108653,-0.70021 0.430048,-0.43005 1.432685,-0.0549 1.257721,0.47054 -0.178112,0.53494 -1.083638,0.68714 -1.366374,0.22967 z m -6.00584,-7.90984 c 2.558227,-4.15094 2.306173,-3.83975 2.654115,-3.27677 0.191002,0.30905 0.08716,0.78063 -0.310035,1.40796 -0.595117,0.93992 -0.594256,0.94731 0.242461,2.08604 0.46183,0.62852 0.855056,1.17631 0.87383,1.2173 0.01878,0.041 0.485098,-0.0548 1.036269,-0.21288 0.746605,-0.21413 1.097168,-0.1729 1.374848,0.16168 0.287744,0.34671 0.273309,0.48227 -0.06333,0.59462 -0.669011,0.22329 -7.029299,1.46205 -7.506691,1.46205 -0.243386,0 0.474467,-1.45385 1.698531,-3.44 z m 2.27769,1.67923 c 0.05806,-0.057 -0.141444,-0.48069 -0.443348,-0.94145 -0.3019,-0.46077 -0.576041,-0.79726 -0.609196,-0.74777 -0.03316,0.0495 -0.398135,0.57861 -0.811072,1.17581 l -0.750788,1.08582 1.254416,-0.23436 c 0.68993,-0.1289 1.301927,-0.28102 1.359988,-0.33805 z m -7.730833,-4.13198 c -0.134435,-0.35033 0.584439,-0.88503 2.663991,-1.98149 l 2.848106,-1.50168 -0.450653,-0.87147 c -0.42962,-0.83079 -0.356487,-1.27261 0.210649,-1.27261 0.143092,0 0.546951,0.56215 0.897469,1.24922 l 0.637309,1.24923 -0.715622,0.46889 c -0.552295,0.36188 -4.458404,2.44517 -5.706557,3.04355 -0.110317,0.0529 -0.283428,-0.11975 -0.384692,-0.38364 z m -0.888832,-7.80497 2.365904,-2.20364 -1.245904,-0.2058 c -0.685248,-0.11319 -2.073904,-0.20738 -3.085904,-0.20932 -1.012,-0.002 -1.838179,-0.11152 -1.835952,-0.24352 0.0068,-0.40112 6.383645,-3.96538 6.721239,-3.75673 0.596509,0.36866 0.308585,0.68022 -1.641952,1.77676 l -1.956666,1.09997 1.236666,0.22156 c 0.680166,0.12185 1.848665,0.22985 2.596665,0.24 0.748,0.0101 1.36,0.094 1.36,0.18644 0,0.0924 -0.888928,1.00354 -1.975395,2.02474 l -1.975392,1.85674 2.215392,-0.37604 c 2.339994,-0.39718 2.695395,-0.3597 2.695395,0.28424 0,0.26248 -1.01718,0.53615 -2.96,0.79637 -1.628,0.21805 -3.392,0.46743 -3.92,0.55416 -0.874268,0.14363 -0.748716,-0.0391 1.405904,-2.04593 z m -1.805904,-9.4431 c -1.98,-0.550918 -3.594944,-1.077618 -3.588768,-1.170428 0.0062,-0.0928 1.554179,-1.11915 3.44,-2.28075 2.608653,-1.606832 3.456215,-1.994646 3.54352,-1.621382 0.06311,0.269836 -0.260886,0.764242 -0.72,1.098692 -1.427702,1.04001 -0.951699,3.5233 0.740218,3.861688 0.583302,0.11665 0.98503,0.39602 0.98503,0.685 0,0.63097 -0.1384,0.61295 -4.4,-0.57282 z m 1.001082,-1.739178 c -0.116115,-0.484 -0.233526,-0.91067 -0.260918,-0.94815 -0.02739,-0.0375 -0.547133,0.23979 -1.154983,0.61616 l -1.105181,0.68431 0.8,0.23194 c 1.638551,0.47506 1.94986,0.36938 1.721082,-0.58426 z m -1.777229,-8.354374 c -1.70288,-0.468189 -3.183542,-0.938647 -3.290358,-1.045463 -0.106816,-0.106816 1.125971,-0.670249 2.739529,-1.25207 l 2.933738,-1.057859 -2.796579,-1.405252 c -1.538122,-0.772886 -2.717895,-1.483936 -2.621722,-1.580108 0.212582,-0.212586 7.362458,-1.058672 7.531072,-0.8912 0.06574,0.0653 0.03426,0.340934 -0.06996,0.612524 -0.11947,0.311341 -0.592261,0.493802 -1.279531,0.493802 -0.599523,0 -1.548374,0.09167 -2.108557,0.203702 l -1.018515,0.203703 2.258515,1.247158 c 1.242183,0.685936 2.258515,1.302531 2.258515,1.370208 0,0.06768 -0.972,0.440611 -2.16,0.828743 -1.188,0.388131 -2.269254,0.804326 -2.40279,0.92488 -0.133533,0.12055 0.514467,0.409488 1.44,0.64208 2.082336,0.523302 2.877088,0.920422 2.632867,1.31558 -0.251459,0.406871 -0.461238,0.375223 -4.046224,-0.610428 z m 1.656147,-10.157895 c -1.496,-1.157709 -2.9348,-2.225257 -3.197334,-2.372329 -0.262535,-0.147069 -0.406535,-0.336132 -0.32,-0.420135 0.237897,-0.230944 8.09863,-1.500637 8.264378,-1.334889 0.339638,0.339635 -0.738944,1.119622 -1.548237,1.119622 -0.785168,0 -0.924835,0.166826 -1.26257,1.508086 -0.365536,1.451671 -0.349001,1.530477 0.442013,2.106688 0.762106,0.555156 1.132032,1.509972 0.58175,1.501556 -0.132,-0.0019 -1.464,-0.950887 -2.96,-2.108599 z m 1.054439,-1.647731 c 0.09298,-0.484 0.124477,-0.925286 0.07,-0.980634 -0.05447,-0.05535 -0.632544,-6.4e-4 -1.284602,0.121776 l -1.185561,0.222413 0.912861,0.746714 c 1.170799,0.957705 1.283753,0.949331 1.487302,-0.110269 z m 1.505561,-5.990813 c -2.821737,-1.110093 -3.122739,-1.087181 -3.62846,0.276192 -0.09043,0.243783 -0.241901,0.25176 -0.484634,0.02554 -0.449866,-0.419289 1.003485,-4.150905 1.61665,-4.150905 0.229043,0 0.363251,0.216 0.298233,0.48 -0.301664,1.224924 -0.122,1.387296 2.735293,2.47206 2.111258,0.801533 2.888909,1.24058 2.765763,1.561495 -0.218893,0.570422 -0.106848,0.59296 -3.302845,-0.664368 z m 1.641876,-5.072979 c -1.648967,-0.923277 -2.961607,-1.817629 -2.916973,-1.987446 0.272531,-1.036932 1.468685,-3.028762 1.818864,-3.028762 0.583571,0 0.516317,0.631949 -0.190634,1.791283 l -0.604473,0.991287 0.852883,0.503811 c 0.843251,0.498118 0.861267,0.489245 1.595113,-0.785843 0.515824,-0.89626 0.84417,-1.187712 1.076416,-0.955466 0.232247,0.232246 0.131508,0.677696 -0.330252,1.46032 l -0.664436,1.126134 1.117642,0.69074 c 0.614701,0.379904 1.157056,0.63831 1.205235,0.574236 0.04818,-0.06408 0.418864,-0.667043 0.823744,-1.339926 1.144736,-1.90247 1.574106,-0.976 0.479629,1.034912 -0.487491,0.895683 -0.971462,1.622864 -1.075491,1.615958 -0.104029,-0.0069 -1.538298,-0.767958 -3.187267,-1.691238 z m 3.73248,-6.073872 c -1.532106,-1.090285 -2.792106,-2.134998 -2.8,-2.321587 -0.02435,-0.575456 1.945805,-2.380749 2.59816,-2.380749 1.011417,0 2.282745,1.496886 2.052038,2.416102 -0.192787,0.768128 -0.157209,0.783898 1.768531,0.783898 1.682116,0 1.909696,0.06697 1.579511,0.464826 -0.231507,0.278947 -1.103098,0.502883 -2.179623,0.56 l -1.793852,0.09517 1.178073,0.8 c 1.111152,0.754554 1.360688,1.296288 0.682807,1.482336 -0.165002,0.04529 -1.55354,-0.809715 -3.085645,-1.9 z m 1.025645,-2.473901 c 0,-0.115085 -0.288,-0.469878 -0.64,-0.788435 -0.618048,-0.559328 -0.662864,-0.558502 -1.306583,0.02406 l -0.666586,0.603251 0.885223,0.761434 c 0.841261,0.723622 0.906141,0.732819 1.306582,0.185184 0.231751,-0.316944 0.421364,-0.670416 0.421364,-0.785498 z m 4.267465,-4.969945 c -0.266707,-0.695028 0.410381,-1.348644 0.895024,-0.864 0.409613,0.409612 0.155856,1.36551 -0.362489,1.36551 -0.187047,0 -0.426688,-0.22568 -0.532535,-0.50151 z M 94.578512,137.8692 v -0.96 h -3.04 -3.04 v 0.96 0.96 h 3.04 3.04 z m 28.963838,0.33209 c -0.23759,-0.74857 0.29064,-1.88114 1.23362,-2.64497 0.65198,-0.52813 0.39597,-0.55263 -5.71746,-0.54719 -5.85519,0.005 -6.32509,0.0463 -5.52,0.4831 1.1795,0.63989 1.21192,1.94661 0.0592,2.38489 -1.7691,0.67261 -2.70443,0.39825 -4.39059,-1.28792 -1.58443,-1.58442 -1.61982,-1.6 -3.63429,-1.6 h -2.03429 v 0.93714 c 0,1.0875 -0.65586,1.85433 -1.8402,2.15158 -1.701078,0.42695 -3.314038,-1.41073 -2.30518,-2.62633 0.330313,-0.39801 -0.06728,-0.46239 -2.855437,-0.46239 -2.602448,0 -3.239181,0.0904 -3.239181,0.45972 0,0.28477 0.395805,0.49789 1.04,0.56 0.976166,0.0941 1.046038,0.18375 1.1384,1.46028 l 0.0984,1.36 h 14.083168 c 13.84717,0 14.07982,-0.0105 13.88387,-0.62791 z m 12.63616,-1.29209 v -1.92 h -2.4 c -1.79709,0 -2.4,0.10812 -2.4,0.4304 0,0.63581 -0.96875,1.38472 -2.24,1.73164 -0.616,0.16811 -1.624,0.61389 -2.24,0.99061 l -1.12,0.68496 5.2,0.001 5.2,0.001 v -1.92 z m 6.72,0.48 c 0,-1.32267 0.0652,-1.44 0.8,-1.44 0.49778,0 0.8,-0.18133 0.8,-0.48 0,-0.38327 -0.47554,-0.48 -2.35985,-0.48 h -2.35985 l 0.62263,1.25846 c 0.49115,0.99269 0.54787,1.39817 0.2686,1.92 -0.3307,0.61792 -0.2689,0.66154 0.93722,0.66154 h 1.29125 z m 6.72,0.48 v -0.96 h -2.88 -2.88 v 0.96 0.96 h 2.88 2.88 z m 7.45059,-4.06957 c 1.40315,-1.19374 3.69484,-3.46643 5.09265,-5.05043 C 181.16818,107.211 181.6072,75.503727 163.2051,53.39381 153.73884,42.020197 140.31234,34.919615 124.81851,33.093116 l -1.6,-0.188618 1.50284,0.799766 c 0.82657,0.439869 1.96667,1.376928 2.53356,2.082352 0.5669,0.705421 1.29462,1.282586 1.61716,1.282586 0.48171,0 0.58644,0.257168 0.58644,1.44 0,0.792 -0.144,1.44 -0.32,1.44 -0.18321,0 -0.32,0.96889 -0.32,2.266666 0,1.246668 0.12028,2.218668 0.26729,2.16 0.14701,-0.05867 2.16301,-0.964647 4.48,-2.013293 l 4.21271,-1.906627 v -2.013373 c 0,-1.128915 0.14058,-2.013373 0.32,-2.013373 0.17976,0 0.32,0.891117 0.32,2.03335 V 40.4959 l 4.0672,2.206652 c 2.23695,1.213658 4.18095,2.25465 4.32,2.313316 0.13904,0.05867 0.2528,-0.565332 0.2528,-1.386666 0,-1.052976 0.11796,-1.453722 0.4,-1.359002 0.26359,0.08852 0.41213,0.888797 0.43556,2.346666 0.0346,2.154035 0.0583,2.215053 0.89898,2.315421 1.02956,0.122925 0.93563,0.83999 -0.11134,0.849974 -0.69101,0.0066 -0.72816,0.127341 -0.72933,2.37064 l -0.001,2.363696 2.57897,2.206967 c 12.8354,10.983964 19.04029,29.200844 15.56821,45.706536 -2.18116,10.36886 -8.58571,21.07012 -16.27621,27.19569 l -1.80384,1.43658 v 3.44342 3.44341 h 1.28 1.28 v 1.44367 1.44367 l 1.9697,-1.43324 c 1.08333,-0.78829 3.11773,-2.40994 4.52089,-3.60367 z m -0.90782,-6.19831 c -0.11825,-0.19134 -0.0673,-0.49559 0.11323,-0.67612 0.40372,-0.40372 1.024,-0.0628 1.024,0.56289 0,0.53875 -0.82356,0.62075 -1.13723,0.11323 z m 7.53723,-4.90986 c 0,-0.27624 0.21094,-0.50226 0.46875,-0.50226 0.2578,0 0.63186,-0.3048 0.83123,-0.67733 0.28459,-0.53175 0.26186,-0.77798 -0.10573,-1.14557 -0.41098,-0.41098 -0.66409,-0.36582 -2.06996,0.36928 -1.36814,0.71539 -1.72125,0.78306 -2.42137,0.46406 -1.21751,-0.55473 -1.67855,-1.90259 -1.05996,-3.0988 0.53368,-1.03203 1.08385,-1.35164 2.32668,-1.35164 0.58841,0 0.76812,0.14671 0.68594,0.56 -0.0724,0.36406 -0.35043,0.52668 -0.79465,0.46477 -0.92304,-0.12865 -1.7901,1.09067 -1.35445,1.90471 0.41673,0.77865 1.12303,0.74616 2.77259,-0.12754 1.52591,-0.80822 2.12674,-0.64247 2.95436,0.815 0.433,0.76253 0.41659,0.91014 -0.1921,1.72839 -0.75605,1.01634 -2.04133,1.39218 -2.04133,0.59693 z m 1.64346,-7.43578 c -2.48085,-1.33433 -3.21038,-1.86679 -2.93366,-2.14122 0.27645,-0.27415 1.12897,0.0338 3.41781,1.23474 3.32671,1.74545 3.37447,1.78179 3.044,2.3165 -0.15357,0.24848 -1.28609,-0.20413 -3.52815,-1.41002 z m 4.43654,-3.47652 c 0,-0.26953 0.216,-0.57293 0.48,-0.67424 0.63263,-0.24276 0.61836,-1.68272 -0.0191,-1.92733 -0.2943,-0.11293 -0.85236,0.13776 -1.36,0.61094 -0.47349,0.44136 -1.17547,0.96409 -1.55995,1.16162 -1.31903,0.67767 -2.98095,-0.5136 -2.98095,-2.13676 0,-0.96126 1.22581,-2.30419 2.10323,-2.30419 0.9708,0 1.04772,0.87518 0.0895,1.01774 -0.9575,0.14246 -1.49141,1.0603 -1.03675,1.78226 0.56582,0.89848 1.32042,0.83554 2.59681,-0.21657 1.31864,-1.08693 2.33994,-1.24503 3.1044,-0.48057 0.69886,0.69886 0.62828,2.25171 -0.13715,3.01714 -0.76364,0.76364 -1.28,0.82414 -1.28,0.14996 z m -0.28046,-8.16661 c -1.65026,-0.32869 -3.06932,-0.66646 -3.15346,-0.75061 -0.0841,-0.0841 1.22993,-1.0399 2.92016,-2.12391 1.69024,-1.084008 3.00306,-2.084338 2.91739,-2.222948 -0.0857,-0.13862 -0.84153,-0.35098 -1.67969,-0.47192 -2.42291,-0.3496 -2.96394,-0.53372 -2.96394,-1.00865 0,-0.24492 0.252,-0.4377 0.56,-0.4284 0.98354,0.0297 6.48154,1.15796 6.69813,1.37456 0.2526,0.25259 0.54951,0.0269 -3.01855,2.294368 -1.62823,1.03473 -2.85223,1.9748 -2.72,2.08906 0.13223,0.11425 1.29164,0.38801 2.57645,0.60834 1.47777,0.25343 2.29154,0.53584 2.21493,0.76869 -0.18223,0.55393 -1.05406,0.52817 -4.35142,-0.12858 z m -1.63954,-13.103348 v -1.92 h 3.68 3.68 v 1.92 c 0,1.493334 -0.10666,1.92 -0.48,1.92 -0.35555,0 -0.48,-0.373334 -0.48,-1.44 0,-1.386666 -0.0356,-1.44 -0.96,-1.44 -0.92444,0 -0.96,0.05333 -0.96,1.44 0,1.066666 -0.12444,1.44 -0.48,1.44 -0.35555,0 -0.48,-0.373334 -0.48,-1.44 v -1.44 h -1.28 -1.28 v 1.44 c 0,1.066666 -0.12444,1.44 -0.48,1.44 -0.37333,0 -0.48,-0.426666 -0.48,-1.92 z m -0.49053,-5.777043 c -0.36804,-0.595495 0.32296,-0.823613 3.75462,-1.239527 2.2587,-0.27375 3.31809,-0.289251 3.55532,-0.05202 0.5074,0.507399 0.29276,0.585821 -2.65993,0.971872 -1.49571,0.195559 -3.10177,0.431751 -3.56901,0.524874 -0.48041,0.09574 -0.95011,0.0066 -1.081,-0.205199 z m -0.64401,-5.248413 c -0.94413,-0.944122 -1.00546,-2.074397 -0.16817,-3.099094 0.48899,-0.598439 0.70024,-0.673885 1.01644,-0.363012 0.31832,0.312967 0.28024,0.52384 -0.18806,1.0413 -0.48611,0.537145 -0.52456,0.786377 -0.2233,1.447561 0.38888,0.853511 1.36948,1.05912 1.9015,0.398701 0.17723,-0.22 0.42689,-0.904 0.5548,-1.52 0.44802,-2.15761 2.04402,-2.917309 3.36133,-1.6 0.70773,0.707722 0.81628,1.63271 0.30395,2.59 -0.46482,0.868512 -0.9611,0.455763 -0.74588,-0.620333 0.11769,-0.588457 0.008,-1.025699 -0.32641,-1.303392 -0.76992,-0.638982 -1.36032,-0.210243 -1.57852,1.146304 -0.42342,2.632352 -2.26863,3.521018 -3.90768,1.881965 z m 0.68682,-8.278342 -1.05405,-1.117616 -1.30308,0.583404 c -1.25007,0.559677 -1.67515,0.541168 -1.67515,-0.07293 0,-0.276246 2.0865,-1.286109 5.2157,-2.524387 l 1.53569,-0.607703 0.46431,1.111239 c 0.60105,1.438521 0.58518,1.881101 -0.0957,2.668537 -1.04371,1.207056 -1.92196,1.195524 -3.08772,-0.04054 z m 2.60956,-1.016202 c 0.14744,-1.153165 -0.3364,-1.525946 -1.39084,-1.071581 -0.51205,0.220643 -0.97866,0.43168 -1.03692,0.468967 -0.0583,0.03729 0.0594,0.376764 0.26152,0.754387 0.48258,0.901715 2.04554,0.792211 2.16624,-0.151773 z m -8.73499,-3.70129 c -0.2611,-0.422464 -0.55956,-0.20168 3.14597,-2.327225 2.51333,-1.441683 3.16974,-1.700813 3.31953,-1.310455 0.22511,0.586618 0.54794,0.333773 -2.97032,2.326359 -3.18812,1.805609 -3.1894,1.806089 -3.49518,1.311321 z m -2.55161,-4.013404 c -0.49009,-0.642538 -0.7459,-1.245757 -0.57674,-1.36 0.16719,-0.112919 1.46836,-1.033306 2.89147,-2.045306 1.42312,-1.012 2.74556,-1.84 2.93876,-1.84 0.48335,0 0.44416,0.852445 -0.0487,1.05983 -0.22,0.09257 -1.37383,0.878224 -2.56407,1.745908 l -2.16407,1.5776 0.63359,0.805478 c 0.57981,0.737107 0.5795,1.211184 -6.4e-4,1.211184 -0.12578,0 -0.62501,-0.519613 -1.10941,-1.154694 z m -3.0126,-8.431316 c -0.45397,-0.280566 -0.25963,-1.29399 0.24814,-1.29399 0.15997,0 0.45427,0.196893 0.65399,0.437542 0.4694,0.565594 -0.25697,1.255181 -0.90213,0.856448 z M 126.44092,137.3892 c 1.02297,-0.616 2.10446,-1.12 2.40332,-1.12 0.29885,0 0.86519,-0.2606 1.25853,-0.5791 0.68729,-0.55654 0.69491,-0.61827 0.19545,-1.58411 -0.64667,-1.25053 -0.66922,-2.9568 -0.0499,-3.77563 0.68225,-0.90202 0.60202,-1.10116 -0.44365,-1.10116 -1.67335,0 -1.79527,0.16483 -1.67656,2.26658 l 0.10962,1.94085 -1.94962,1.91962 c -1.07229,1.05579 -1.94962,2.19711 -1.94962,2.53628 0,0.33917 0.0546,0.61667 0.12123,0.61667 0.0667,0 0.95821,-0.504 1.98118,-1.12 z m 13.23896,0.66245 c 0.30123,-0.36296 0.17377,-0.88461 -0.61657,-2.52333 l -0.99631,-2.06578 0.65576,-1.94657 c 0.79509,-2.36019 0.79288,-2.28677 0.0686,-2.28677 -0.32291,0 -0.94762,0.40462 -1.38826,0.89916 -0.77538,0.87023 -0.79387,0.99632 -0.57492,3.92 0.12443,1.66146 0.16039,3.13574 0.0799,3.27616 -0.0805,0.14043 -0.0661,0.46443 0.032,0.72 0.23293,0.60701 2.23759,0.61223 2.73977,0.007 z m -37.60754,-1.01669 c 0.35527,-0.13633 0.50617,-0.61332 0.50617,-1.6 0,-1.68035 -0.53052,-1.841 -1.74705,-0.52903 -1.490218,1.60714 -0.74245,2.89011 1.24088,2.12903 z m 11.2935,-0.32194 c 0.0642,-0.1959 -0.31022,-0.53306 -0.83213,-0.74924 -0.52191,-0.21618 -1.19766,-0.6679 -1.50166,-1.00382 -0.52044,-0.57508 -2.37354,-0.87508 -2.37354,-0.38425 0,0.12458 0.53964,0.77914 1.1992,1.45459 0.99792,1.02197 1.38316,1.21222 2.29526,1.1335 0.60284,-0.052 1.14863,-0.25488 1.21287,-0.45078 z M 92.192902,116.9892 c -0.08826,-10.428 -0.149235,-19.895998 -0.135494,-21.039998 0.05573,-4.640627 0.0081,-7.039485 -0.203546,-10.241773 -0.308566,-4.669549 0.01629,-5.725043 2.51833,-8.182323 L 96.351696,75.58101 95.607027,74.133976 C 95.197459,73.338108 94.779619,71.885295 94.678496,70.9055 l -0.183859,-1.78144 -1.356861,-0.341661 c -0.746275,-0.187914 -1.591402,-0.431664 -1.878064,-0.541667 -0.479581,-0.184032 -0.5212,2.511238 -0.5212,33.754228 v 33.95424 h 0.807433 0.807434 z m 54.865608,15.44686 v -3.51314 l -0.8,0.3645 c -0.77443,0.35286 -0.8,0.46513 -0.8,3.51315 0,3.14521 9.6e-4,3.14863 0.8,3.14863 h 0.8 z m -48.662286,0.71314 c -3.059328,-1.54988 -3.633632,-3.15567 -2.701718,-7.55418 l 0.464883,-2.19418 -0.950439,-0.95043 c -1.067971,-1.06797 -1.242355,-2.44634 -0.530281,-4.19149 0.278889,-0.68351 0.388928,-2.1448 0.32728,-4.34628 -0.08611,-3.07509 -0.151645,-3.37102 -0.900154,-4.06472 l -0.807283,-0.74816 v 12.46472 12.46472 h 3.417379 3.417379 z m 8.662286,0.74083 c 0,-0.0765 -0.14114,-0.5104 -0.31365,-0.96413 -0.17251,-0.45373 -0.37352,-3.73911 -0.4467,-7.30083 -0.15025,-7.31285 -0.59496,-9.65321 -1.88105,-9.8993 l -0.7186,-0.1375 0.24994,4.34046 c 0.20386,3.54041 0.14459,4.97623 -0.32158,7.78959 -0.31433,1.89701 -0.52031,4.09301 -0.45772,4.88 l 0.11381,1.43088 h 1.88777 c 1.03828,0 1.88778,-0.0626 1.88778,-0.13917 z m 8.2098,-0.67711 c 0.58861,-0.44896 1.0702,-1.04315 1.0702,-1.32042 0,-0.27727 -0.45615,-1.38594 -1.01367,-2.46372 -0.91185,-1.76274 -1.01192,-2.23281 -0.99624,-4.67958 0.0223,-3.47843 0.42483,-4.91216 2.03232,-7.23853 1.25662,-1.81859 1.29367,-1.94564 1.10871,-3.80147 -0.57751,-5.79457 -0.57744,-5.78485 -0.0501,-6.80453 0.28546,-0.55203 0.51902,-1.24916 0.51902,-1.54918 0,-0.50706 -0.044,-0.50564 -0.62514,0.0203 -0.35072,0.3174 -0.78177,1.35759 -0.98196,2.36959 -0.69615,3.51937 -0.96165,4.09799 -3.10918,6.77622 l -2.17111,2.70764 0.45471,1.69764 c 0.40348,1.50642 0.39362,2.01513 -0.0875,4.51592 -0.40496,2.10473 -0.46494,3.17374 -0.23688,4.22235 0.16795,0.77225 0.40592,2.52009 0.52883,3.88409 l 0.22347,2.48 h 1.13219 c 0.72068,0 1.52119,-0.2967 2.20241,-0.81629 z m 11.74838,0.0963 c 0.31101,-0.49441 0.38852,-1.15586 0.24737,-2.11107 l -0.20555,-1.39107 -1.7139,-0.0561 c -1.46273,-0.0479 -1.83218,-0.19363 -2.52093,-0.99435 -0.73838,-0.85843 -0.79131,-1.11636 -0.62226,-3.03279 0.10162,-1.15202 0.49422,-2.99743 0.87244,-4.10091 l 0.68768,-2.00633 -1.12817,-1.24875 c -1.49578,-1.65566 -1.67873,-3.07699 -1.03692,-8.05577 0.77538,-6.0149 0.76886,-7.93067 -0.0315,-9.2556 -1.08067,-1.789008 -1.45444,-3.286708 -1.07156,-4.293768 0.29257,-0.7695 0.21371,-1.015844 -0.63441,-1.981799 -1.42898,-1.627513 -1.47413,-1.377517 -1.19336,6.608347 0.13237,3.76527 0.0712,4.81834 -0.32434,5.58599 -0.39,0.75685 -0.4357,1.4606 -0.22858,3.52 0.48932,4.86508 0.42801,5.35872 -0.9061,7.29578 -1.41706,2.05752 -1.73554,3.03134 -2.02078,6.17905 -0.1952,2.15414 -0.13826,2.48469 0.75777,4.39947 1.40001,2.99177 1.51428,3.7708 0.70415,4.80071 l -0.67569,0.859 h 5.29585 c 5.14446,0 5.3088,-0.0206 5.74878,-0.72 z m 8.99114,0.16 c -0.38902,-1.96675 -0.52271,-2.32 -0.87796,-2.32 -0.21805,0 -1.07157,-0.35939 -1.8967,-0.79865 l -1.50026,-0.79865 -0.4972,0.70985 c -0.58971,0.84193 -0.65656,2.84009 -0.1132,3.38345 0.22762,0.22762 1.32312,0.384 2.69004,0.384 2.0251,0 2.29255,-0.0682 2.19528,-0.56 z m 8.49068,-1.62863 c 0,-1.99468 -0.0675,-2.2194 -0.76171,-2.5357 -0.53417,-0.24338 -1.14913,-0.24872 -2.05866,-0.0179 -1.35961,0.34511 -1.89714,1.15868 -2.44604,3.70219 l -0.22444,1.04 h 2.74543 2.74542 z m -33.60122,0.74861 c -6.4e-4,-0.528 -0.19961,-2.184 -0.44209,-3.68 -0.29534,-1.8221 -0.35128,-3.24818 -0.16947,-4.32 0.69983,-4.1258 0.69927,-4.20292 -0.0489,-6.72313 l -0.73753,-2.48439 0.91047,-1.68312 c 0.86722,-1.60318 0.89072,-1.75365 0.49469,-3.16812 -0.2695,-0.96254 -0.3536,-2.40961 -0.23906,-4.11311 l 0.17672,-2.62813 -0.63451,1.6 c -0.34898,0.88 -0.9873,2.896 -1.4185,4.48 -0.45335,1.66537 -1.19363,3.46827 -1.75527,4.27485 l -0.97126,1.39485 0.54909,2.12515 c 0.40249,1.55775 0.57919,3.82007 0.6618,8.47334 0.062,3.4915 0.24077,6.5875 0.39731,6.88 0.20198,0.37739 0.71191,0.53181 1.75618,0.53181 1.422,0 1.47151,-0.0323 1.47033,-0.96 z m -8.63878,-0.84181 c 0,-0.727 0.22915,-2.76317 0.50923,-4.52482 0.42032,-2.64382 0.45419,-4.01922 0.19399,-7.87819 -0.3115,-4.6197 -0.32894,-4.6955 -1.46923,-6.38734 l -1.15399,-1.71215 -0.0271,4.27215 c -0.11005,17.36342 -0.0961,17.55216 1.29915,17.55216 0.546,0 0.64792,-0.20795 0.64792,-1.32181 z m -2.74266,-0.19819 c -0.139639,-0.66 -0.214944,-5.47191 -0.167351,-10.69314 0.05731,-6.28659 -0.03876,-10.0967 -0.284409,-11.28 -0.204026,-0.98277 -0.442039,-1.78686 -0.528925,-1.78686 -0.189754,0 -1.759696,1.81541 -2.162368,2.50047 -0.611047,1.03956 -0.80841,2.83556 -0.501827,4.56659 0.2492,1.40703 0.213478,2.07908 -0.167975,3.16024 -0.663929,1.88177 -0.607449,3.08973 0.181351,3.87853 0.640547,0.64055 0.682086,0.64361 1.093836,0.0805 0.754637,-1.03204 0.85073,-0.23619 0.204816,1.69631 -0.74504,2.22907 -1.157104,5.22571 -0.873798,6.35449 0.189526,0.75513 2.468061,2.72286 3.152938,2.72286 0.187251,0 0.208265,-0.4695 0.05371,-1.2 z m 36.28113,-4.8 c 0.45588,-3.9921 0.22021,-6.002 -1.06059,-9.04505 -0.46845,-1.11298 -0.79001,-2.34637 -0.7146,-2.74088 0.11798,-0.6172 0.0581,-0.66795 -0.4291,-0.36368 -0.87189,0.5445 -1.01005,2.1913 -0.42577,5.07483 0.59048,2.91417 0.45266,6.2469 -0.33643,8.13548 l -0.45982,1.10051 1.18392,0.62525 c 0.65116,0.34389 1.33369,0.63162 1.51674,0.6394 0.18754,0.008 0.50429,-1.48742 0.72565,-3.42586 z m 3.77752,1.67065 c 3.45115,0.43119 3.91027,-0.54904 2.97105,-6.34334 -0.72754,-4.48845 -0.68671,-7.21815 0.15464,-10.33855 l 0.44522,-1.65125 -1.00579,-0.18869 c -1.65626,-0.31071 -3.82124,0.52831 -5.88911,2.28227 -1.48509,1.25966 -1.64677,2.66188 -0.60667,5.26172 1.44431,3.6102 1.67223,7.69196 0.67411,12.0725 -0.15852,0.69571 -0.0951,0.67114 0.69691,-0.27015 0.83613,-0.99368 0.93939,-1.02695 2.55964,-0.82451 z m -9.41904,0.079 c 1.4075,0.0404 1.51857,-0.0177 1.85867,-0.97331 0.59128,-1.66135 0.73197,-5.03209 0.30287,-7.25632 -0.2207,-1.144 -0.40801,-2.5949 -0.41624,-3.22421 l -0.015,-1.14421 -2.52944,1.05086 c -1.39119,0.57797 -2.87148,1.27497 -3.28953,1.54889 -1.42175,0.93158 -3.00831,5.09195 -3.00831,7.88861 0,2.17266 0.73034,2.65346 3.52,2.31731 1.144,-0.13785 2.75363,-0.23128 3.57695,-0.20762 z M 146.5372,128.179 c 0.52207,-0.38174 0.55335,-1.32029 0.45056,-13.52 -0.12249,-14.53859 -0.0731,-14.16963 -2.35833,-17.612488 -0.64398,-0.9702 -1.22147,-1.713405 -1.2833,-1.651572 -0.0618,0.06184 0.20233,0.895842 0.58705,1.853352 1.03301,2.57109 0.92791,8.533248 -0.2507,14.220928 -0.93146,4.49499 -0.93555,6.32954 -0.0267,11.99437 0.26717,1.6654 0.33225,3.07424 0.16839,3.64556 -0.14688,0.51216 -0.19073,1.05469 -0.0974,1.20563 0.25914,0.4193 2.17821,0.32658 2.81053,-0.13578 z m 5.60192,-3.9898 c 5.49315,-5.5102 8.91863,-10.9172 11.36021,-17.9317 0.97739,-2.80794 2.11918,-7.326528 2.11918,-8.386498 0,-0.18985 -1.44,0.74534 -3.2,2.0782 -2.73376,2.070298 -3.2,2.555848 -3.2,3.332508 0,0.50002 0.2073,1.08116 0.46065,1.29143 0.68311,0.56693 2.23159,0.29347 2.36663,-0.41793 0.16359,-0.86186 -0.44208,-1.36488 -1.04296,-0.8662 -0.26554,0.22039 -0.65864,0.34208 -0.87356,0.27044 -0.43296,-0.14432 0.77092,-1.53025 1.32924,-1.53025 0.55559,0 1.6,1.2533 1.6,1.92 0,0.94978 -1.13927,1.92 -2.25454,1.92 -1.84391,0 -3.12276,-2.16337 -2.24661,-3.80048 0.16437,-0.30712 1.38837,-1.39291 2.72,-2.412848 1.33164,-1.01995 2.42115,-1.9112 2.42115,-1.98056 0,-0.0694 -1.656,-0.12611 -3.68,-0.12611 h -3.68 v 4.159998 4.16 h 0.96 c 0.64,0 0.96,0.16 0.96,0.48 0,0.4066 -0.78019,0.48 -5.10171,0.48 h -5.10171 l -0.0983,4.00058 c -0.0541,2.20032 -0.0263,3.98886 0.0617,3.97453 0.088,-0.0143 1.36409,-1.38259 2.83574,-3.04059 l 2.67574,-3.01452 h 2.39093 c 1.7699,0 2.35659,0.1039 2.25876,0.4 -0.0834,0.25241 -0.90895,0.43467 -2.23738,0.49395 l -2.10521,0.094 -2.90929,3.19158 c -2.51292,2.75675 -2.90929,3.3454 -2.90929,4.32059 0,2.92531 4.04074,4.02587 5.3248,1.45029 0.77922,-1.56295 -0.7233,-3.39385 -2.29134,-2.79214 -0.76348,0.29298 -0.9661,1.20411 -0.36545,1.64332 0.65926,0.48207 0.69304,1.11845 0.0594,1.11845 -0.69967,0 -1.53777,-1.45107 -1.28964,-2.23286 0.29398,-0.92624 1.60953,-1.71095 2.56286,-1.52871 0.70446,0.13467 0.7994,0.0422 0.7994,-0.7787 0,-1.31383 0.7599,-2.62583 1.79368,-3.09685 0.76148,-0.34695 0.99378,-0.31842 1.704,0.20935 1.09384,0.81283 1.23772,2.09259 0.30844,2.74348 -0.89208,0.62484 -1.45755,0.32832 -0.78696,-0.41268 1.02629,-1.13403 0.20354,-2.32021 -1.11856,-1.61265 -0.77336,0.4139 -1.07046,1.56805 -0.80068,3.11049 0.62768,3.58881 0.61163,3.7842 -0.40445,4.92138 -0.82311,0.92122 -1.17203,1.07775 -2.40241,1.07775 -0.95934,0 -1.74189,-0.22361 -2.34625,-0.67043 l -0.90682,-0.67048 v 4.11044 c 0,2.26073 0.11976,4.11043 0.26612,4.11043 0.14637,0 1.95289,-1.692 4.01449,-3.76 z m -62.040608,-0.71036 v -3.83035 l -1.2,0.81871 c -1.626032,1.10938 -3.379011,0.90788 -4.669936,-0.53679 -0.794893,-0.88957 -0.883882,-1.18538 -0.703869,-2.33976 0.113337,-0.7268 0.283027,-2.13813 0.377091,-3.13628 0.159133,-1.68866 0.113405,-1.85258 -0.657734,-2.35785 -0.668688,-0.43815 -0.921156,-0.46634 -1.307156,-0.14599 -0.628512,0.52162 -0.604313,0.95509 0.0816,1.46185 0.422985,0.31251 0.469961,0.50513 0.192,0.78728 -0.279802,0.28401 -0.52906,0.21248 -1.04,-0.29846 -0.880656,-0.88066 -0.847981,-1.48511 0.133328,-2.46642 0.945372,-0.94537 1.843276,-0.82438 2.954672,0.39813 0.489475,0.53841 0.72,1.19353 0.72,2.04613 0,1.19924 0.03875,1.24641 0.885049,1.07715 1.088756,-0.21775 2.634951,0.88018 2.634951,1.87104 0,0.777 -0.861242,1.84197 -1.489597,1.84197 -0.608077,0 -0.534326,-0.65214 0.129597,-1.14598 0.441635,-0.32849 0.485456,-0.53886 0.207318,-0.99528 -0.890493,-1.46128 -3.007318,-0.49862 -3.007318,1.36763 0,1.94112 2.434099,3.03448 4.122601,1.85181 0.687469,-0.48152 1.637399,-2.21407 1.637399,-2.98639 0,-0.18083 -1.378391,-1.83511 -3.063091,-3.67619 l -3.063092,-3.34741 -2.111405,-0.0941 c -1.333296,-0.0594 -2.160115,-0.2415 -2.243577,-0.49409 -0.09749,-0.29504 0.483571,-0.40278 2.214499,-0.4106 l 2.346666,-0.0106 2.949939,3.13059 2.949939,3.1306 0.01005,-4.07207 0.01005,-4.07208 -5.17367,-0.0879 c -3.790215,-0.0644 -5.209232,-0.19489 -5.306666,-0.48793 -0.08988,-0.27033 0.238736,-0.4 1.01367,-0.4 h 1.146666 v -4.16 -4.159998 h -3.752909 -3.752912 l 1.272912,1.0258 c 2.963328,2.388048 3.992935,3.633208 3.992935,4.828868 0,2.30481 -2.89352,3.27832 -4.26394,1.43457 -0.534057,-0.71851 -0.58496,-1.00738 -0.291145,-1.65224 0.514317,-1.1288 1.595145,-1.37916 2.414918,-0.55939 0.778682,0.77868 0.472055,1.31364 -0.430045,0.75028 -0.794883,-0.49641 -0.841884,-0.49065 -1.081072,0.13267 -0.264476,0.68922 0.357962,1.39944 1.226464,1.39944 0.939533,0 1.46482,-0.58763 1.46482,-1.63867 0,-0.69816 -0.55442,-1.34632 -2.798103,-3.271228 -1.538957,-1.32031 -2.830563,-2.3681 -2.870237,-2.32843 -0.03967,0.0397 0.270387,1.57653 0.689021,3.415228 2.074448,9.1113 6.135859,16.44261 12.755767,23.02562 1.768477,1.75861 3.334246,3.19748 3.479481,3.19748 0.145239,0 0.264071,-1.72366 0.264071,-3.83036 z m 34.358208,-5.87897 c 0.24574,-0.58814 1.19778,-1.70258 2.11566,-2.47654 0.91787,-0.77396 1.88969,-1.84076 2.1596,-2.37066 0.26991,-0.52991 2.04028,-2.54747 3.93417,-4.48347 3.64328,-3.7243 5.19399,-5.87285 6.47875,-8.976508 1.31322,-3.17241 1.34985,-3.615871 0.31791,-3.848405 -3.64986,-0.822448 -4.06132,-1.095853 -2.98586,-1.984026 0.36699,-0.303081 0.85269,-1.199059 1.07933,-1.991059 0.38314,-1.338864 0.36046,-1.516179 -0.32285,-2.524656 -1.89858,-2.802086 -0.0342,-6.115344 3.44119,-6.115344 2.29093,0 4.34746,2.702554 3.62335,4.761558 -0.25867,0.735508 -0.18073,0.887616 0.67402,1.315434 0.91586,0.4584 0.96345,0.577731 0.90789,2.276467 -0.0578,1.768205 -0.0418,1.802173 1.17337,2.48513 l 1.23199,0.692422 0.21756,-0.990521 c 0.45609,-2.076589 -0.67001,-4.975901 -3.28609,-8.46049 -0.79281,-1.056 -1.70561,-2.532 -2.02846,-3.28 -0.41963,-0.972237 -0.77564,-1.36 -1.24864,-1.36 -1.21477,0 -2.98911,0.964118 -4.39064,2.385725 -1.0955,1.1112 -1.93388,1.589353 -3.9836,2.271971 -2.41208,0.803296 -5.06686,2.574006 -5.06686,3.379539 0,0.515376 1.62367,0.293475 3.62542,-0.495472 1.08602,-0.428029 2.24765,-0.824029 2.58139,-0.88 1.05852,-0.17752 0.89836,0.585459 -0.19655,0.936336 -0.57764,0.185111 -0.79111,0.351264 -0.47437,0.369232 1.1854,0.06724 2.46411,0.987027 2.46411,1.772442 0,0.978953 -1.68484,2.420227 -2.82924,2.420227 -0.75002,0 -0.99027,0.279331 -1.87679,2.182138 -0.68991,1.480812 -1.83213,3.060192 -3.55397,4.914172 -2.12004,2.282728 -2.65424,3.083388 -3.2483,4.868528 -0.39104,1.17508 -1.0401,2.52771 -1.44235,3.00584 -0.83799,0.99605 -1.66026,5.84515 -1.36475,8.04829 0.13359,0.99603 1.27999,3.09315 1.75111,3.20332 0.0416,0.01 0.27676,-0.46349 0.5225,-1.05162 z m 4.45417,-1.47215 c 2.14105,-0.73114 3.03072,-1.31631 6.2605,-4.11779 2.78412,-2.41492 3.90535,-2.94073 6.27075,-2.94073 1.65396,0 1.77786,-0.0545 1.98314,-0.87242 0.12043,-0.47982 0.22857,-2.74782 0.24032,-5.04 0.0186,-3.626028 -0.0736,-4.404528 -0.70968,-5.991078 -0.85598,-2.13513 -1.4601,-2.178346 -2.00744,-0.1436 -1.08841,4.046238 -3.51344,7.821748 -7.63515,11.887098 -1.60597,1.584 -3.26113,3.456 -3.67815,4.16 -0.41701,0.704 -1.56336,1.9723 -2.54744,2.81844 -1.83253,1.57568 -2.49128,2.67453 -0.90923,1.51668 0.484,-0.35422 1.71357,-0.9287 2.73238,-1.2766 z m -15.11553,-3.75841 c 0.64544,-0.91397 1.0983,-2.13463 1.42464,-3.84 0.26312,-1.37506 0.47843,-2.5311 0.47846,-2.56897 3e-5,-0.0379 0.44535,-0.57604 0.9896,-1.19591 0.93428,-1.06408 0.99291,-1.28656 1.0495,-3.98289 l 0.0599,-2.855848 -0.90548,0.46824 c -0.49802,0.25754 -1.15029,0.39444 -1.44949,0.30423 -0.33494,-0.10098 -1.06328,0.29237 -1.89518,1.02351 -1.21321,1.066288 -1.38449,1.399888 -1.67758,3.267528 -0.44517,2.83673 -0.41453,6.60425 0.0645,7.92894 0.35962,0.99449 0.31581,1.23753 -0.48,2.66288 -1.27021,2.27506 -1.12948,3.00471 0.2716,1.40818 0.61781,-0.704 1.54909,-1.88295 2.06952,-2.61989 z m -7.14528,0.64657 c 0.39137,-0.69806 0.94637,-2.18566 1.23333,-3.30578 0.63732,-2.48771 0.43612,-3.32562 -1.61378,-6.7209 -1.28849,-2.13416 -1.42773,-2.5482 -1.25702,-3.737978 0.12494,-0.87082 0.003,-1.90657 -0.34894,-2.96648 -0.49279,-1.483668 -0.49735,-1.756311 -0.0513,-3.065434 0.43899,-1.288365 0.43918,-1.606762 0.002,-3.079575 -0.33571,-1.13048 -0.42179,-2.211481 -0.27606,-3.467059 0.12033,-1.036816 0.062,-2.38057 -0.13516,-3.112717 l -0.34689,-1.288304 -2.31876,-0.215606 c -2.814018,-0.261658 -5.469208,-0.976759 -6.911324,-1.861367 -0.89055,-0.546272 -1.120496,-0.582192 -1.3551,-0.211696 -0.471786,0.745072 -0.32785,1.246218 0.357929,1.246218 1.403872,0 2.868883,0.936246 3.852135,2.461792 0.988947,1.534381 0.990899,1.546304 0.784966,4.790301 -0.192141,3.026761 -0.152627,3.359341 0.570266,4.8 0.565808,1.127597 0.843737,2.373376 1.023545,4.587907 0.395343,4.868938 0.330863,6.187418 -0.372025,7.608088 l -0.642903,1.29942 1.400121,2.48142 c 1.61135,2.85578 3.45752,5.45797 4.02378,5.67155 0.63254,0.23857 1.61928,-0.55441 2.38141,-1.9138 z M 95.907786,107.4692 c 0.181852,0 0.406835,0.29135 0.499955,0.64746 0.16024,0.61274 0.19239,0.61703 0.599865,0.08 0.688096,-0.9069 0.570714,-2.88082 -0.195708,-3.291 -0.708314,-0.37908 -1.273386,-0.18371 -1.273386,0.44026 0,0.21941 -0.36,0.88689 -0.8,1.48328 -0.977299,1.32466 -0.98057,1.41943 -0.08,2.32 l 0.72,0.72 0.09932,-1.2 c 0.05462,-0.66 0.248103,-1.2 0.429956,-1.2 z m -1.46273,-4.33611 c 0.04672,-2.2312 -0.03062,-2.6524 -0.546058,-2.9743 -0.574502,-0.358778 -0.600486,-0.212568 -0.600486,3.3789 0,3.62989 0.01805,3.72816 0.546061,2.9743 0.391411,-0.55882 0.561472,-1.51574 0.600483,-3.3789 z m 29.432344,1.69235 c 0.87515,-2.67783 1.36602,-3.44721 3.89437,-6.104028 2.60632,-2.73873 4.32732,-5.824594 3.5448,-6.35604 -1.70052,-1.154906 -9.29056,2.571702 -10.0387,4.92886 -0.10426,0.32852 0.25696,1.54374 0.82554,2.777308 0.88904,1.9288 0.99792,2.46483 0.90302,4.44595 -0.0594,1.23899 -0.0109,2.1923 0.10762,2.11845 0.11854,-0.0738 0.46205,-0.88857 0.76335,-1.8105 z m -14.11093,-0.61551 c 0.66704,-2.24619 1.84547,-4.1567 3.20218,-5.191508 1.31237,-1.001 1.24089,-1.54816 -0.15014,-1.14922 -0.52325,0.15007 -1.01673,0.16708 -1.09663,0.0378 -0.0799,-0.12927 -0.73611,-2.602661 -1.45827,-5.496424 -0.72215,-2.89376 -1.38412,-5.499831 -1.47105,-5.791264 -0.12811,-0.429472 0.29899,-0.637629 2.25395,-1.098512 1.3266,-0.312746 2.40986,-0.650301 2.40724,-0.750119 -0.003,-0.09982 -0.49548,-0.757491 -1.09526,-1.461491 l -1.0905,-1.28 -1.32489,1.28 c -1.67279,1.616106 -2.47442,2.905203 -3.02076,4.857667 -0.23737,0.848292 -0.58165,1.974343 -0.76508,2.502343 -0.9114,2.62352 -1.05377,4.14095 -0.52617,5.60815 0.33208,0.92345 0.45017,1.92685 0.33261,2.82596 -0.15755,1.204858 -0.0315,1.639258 0.92831,3.199998 0.61083,0.99324 1.27221,2.27372 1.46972,2.84551 0.45824,1.32654 0.79977,1.09827 1.40474,-0.93889 z M 86.898512,90.486184 V 75.103167 l -0.807674,-1.378192 -0.807677,-1.378195 0.849504,-1.958788 c 0.467226,-1.077334 0.944682,-1.95879 1.061012,-1.95879 0.242931,0 1.944835,3.372115 1.944835,3.85345 0,0.175596 -0.36,0.889545 -0.8,1.58655 l -0.8,1.267283 V 90.502844 105.8692 h 1.282221 1.28222 l -0.08222,-21.839998 -0.08222,-21.84 -1.059424,-0.101725 c -1.336637,-0.128339 -1.189184,-0.820953 0.204067,-0.95855 l 1.015357,-0.100275 v -3.361514 -3.361517 l -0.906736,0.645655 c -0.498704,0.355107 -2.208234,2.007043 -3.798957,3.670966 -8.393584,8.779843 -12.90424,20.102528 -12.890784,32.358566 0.0019,1.764615 0.09278,3.748394 0.201868,4.408394 l 0.198346,1.2 h 2.038131 2.038132 v -6.4 -6.4 h -0.986666 c -1.22431,0 -1.114458,-0.753773 0.131344,-0.901254 l 0.855322,-0.101255 v -3.178745 c 0,-2.612218 0.08555,-3.178746 0.48,-3.178746 0.394665,0 0.48,0.56889 0.48,3.2 v 3.2 h 0.8 c 0.497779,0 0.8,0.181334 0.8,0.48 0,0.298666 -0.302221,0.48 -0.8,0.48 h -0.8 v 6.4 6.4 h 1.92 1.92 V 88.12852 79.667836 l -1.126685,-0.09932 c -0.619677,-0.05462 -1.126688,-0.243314 -1.126688,-0.419314 0,-0.176 0.507011,-0.364691 1.126688,-0.419318 l 1.126685,-0.09932 V 74.80988 c 0,-3.607348 -0.03574,-3.820682 -0.64,-3.820682 -0.355556,0 -0.64,-0.213334 -0.64,-0.48 0,-0.266666 0.284444,-0.48 0.64,-0.48 0.469334,0 0.64,-0.213334 0.64,-0.8 0,-0.586666 -0.170666,-0.8 -0.64,-0.8 -0.355556,0 -0.64,-0.213334 -0.64,-0.48 0,-0.266666 0.284444,-0.48 0.64,-0.48 0.469334,0 0.64,-0.213334 0.64,-0.8 0,-0.497779 -0.181335,-0.8 -0.48,-0.8 -0.662103,0 -0.600538,-0.394557 0.163657,-1.048883 0.79169,-0.677866 0.800995,-0.677866 1.592685,0 0.764195,0.654326 0.82576,1.048883 0.163658,1.048883 -0.298666,0 -0.48,0.302221 -0.48,0.8 0,0.586666 0.170665,0.8 0.64,0.8 0.355555,0 0.64,0.213334 0.64,0.48 0,0.266666 -0.284445,0.48 -0.64,0.48 -0.469335,0 -0.64,0.213334 -0.64,0.8 0,0.586666 0.170665,0.8 0.64,0.8 0.355555,0 0.64,0.213334 0.64,0.48 0,0.266666 -0.284445,0.48 -0.64,0.48 -0.604445,0 -0.64,0.213334 -0.64,3.84 v 3.84 h 1.28 c 0.924445,0 1.28,0.133334 1.28,0.48 0,0.346666 -0.355555,0.48 -1.28,0.48 h -1.28 v 13.12 13.120002 h 2.08 2.08 z m 63.359998,14.310766 v -1.07226 l -1.12,0.35056 c -0.8453,0.26457 -1.12,0.52756 -1.12,1.07225 0,0.61147 0.17108,0.7217 1.12,0.7217 1.05717,0 1.12,-0.0601 1.12,-1.07225 z m 5.02421,-11.967748 -0.18682,-13.04 -1.13869,-0.09932 c -1.61146,-0.140551 -1.55863,-1.020535 0.0613,-1.021108 l 1.2,-3.2e-4 v -3.82806 c 0,-3.430621 -0.0594,-3.837559 -0.57267,-3.919575 -0.7448,-0.119024 -0.74875,-0.686285 -0.006,-0.891517 0.31839,-0.088 0.57889,-0.448 0.57889,-0.8 0,-0.352 -0.2605,-0.712 -0.57889,-0.8 -0.31839,-0.088 -0.57888,-0.304 -0.57888,-0.48 0,-0.176 0.26049,-0.392 0.57888,-0.48 0.69148,-0.191123 0.75818,-0.979731 0.12476,-1.475283 -0.38352,-0.300045 -0.3462,-0.471129 0.24,-1.100339 l 0.69413,-0.745056 0.67732,0.727018 c 0.49871,0.535302 0.58309,0.821244 0.32,1.084339 -0.59614,0.595824 -0.42507,1.509219 0.28246,1.509219 0.35556,0 0.64,0.213334 0.64,0.48 0,0.266666 -0.28444,0.48 -0.64,0.48 -0.46933,0 -0.64,0.213334 -0.64,0.8 0,0.586666 0.17067,0.8 0.64,0.8 0.35556,0 0.64,0.213334 0.64,0.48 0,0.266666 -0.28444,0.48 -0.64,0.48 -0.60444,0 -0.64,0.213334 -0.64,3.84 v 3.84 h 1.12 c 0.78222,0 1.12,0.144762 1.12,0.48 0,0.335238 -0.33778,0.48 -1.12,0.48 h -1.12 v 8.48 8.48 h 1.92 1.92 v -6.4 -6.4 h -0.98666 c -1.22431,0 -1.11446,-0.753773 0.13134,-0.901254 l 0.85532,-0.101255 v -3.178745 c 0,-2.612218 0.0855,-3.178746 0.48,-3.178746 0.39467,0 0.48,0.56889 0.48,3.2 v 3.2 h 0.8 c 0.49778,0 0.8,0.181334 0.8,0.48 0,0.298666 -0.30222,0.48 -0.8,0.48 h -0.8 v 6.4 6.4 h 2.36549 2.36548 l 0.21596,-3.12 c 0.93548,-13.515238 -4.98607,-27.962947 -15.298,-37.324829 -1.47526,-1.339344 -2.73778,-2.435344 -2.80561,-2.435552 -0.0678,-2.08e-4 -0.12332,1.619792 -0.12332,3.6 v 3.600381 l 0.93457,0.16 c 1.29674,0.222006 1.42084,0.892387 0.1885,1.018275 l -0.99578,0.101725 0.0231,12.648771 0.0231,12.648771 0.78563,1.911229 c 0.91951,2.236915 0.96867,3.016211 0.32429,5.140371 -0.64395,2.122728 -0.60714,2.804938 0.23653,4.383608 l 0.72,1.347248 0.0838,-12.602235 0.0837,-12.602233 -0.77874,-1.393319 -0.77874,-1.393321 0.85055,-1.924445 c 0.46787,-1.058445 0.92971,-1.924445 1.02638,-1.924445 0.0967,0 0.61862,0.9 1.15991,2 l 0.98415,2 -0.76146,1.143782 -0.76146,1.14378 -0.074,15.576224 -0.074,15.576222 2.20552,-10e-6 h 2.20552 z M 99.079958,100.4292 c -0.190121,-1.319998 -0.344723,-3.088788 -0.343561,-3.930638 0.0013,-1.013187 -0.276163,-2.079792 -0.821047,-3.155066 -0.77792,-1.535155 -0.810912,-1.797148 -0.600332,-4.767408 0.20582,-2.9031 0.168595,-3.230729 -0.487735,-4.292691 -0.776755,-1.256816 -2.101149,-2.094195 -3.312166,-2.094195 -0.695392,0 -0.790851,0.16312 -0.927463,1.584838 -0.08375,0.871661 -0.02768,2.275661 0.124602,3.12 0.60032,3.328423 0.650029,5.689508 0.163536,7.767802 -0.415219,1.77383 -0.422074,2.22364 -0.04755,3.12 0.240688,0.57605 0.567936,1.04736 0.727216,1.04736 0.15928,0 0.680685,0.36244 1.158675,0.80543 0.803271,0.744448 0.852983,0.934248 0.656522,2.506668 l -0.212557,1.70123 h 1.055584 c 0.778669,0 1.227312,0.23039 1.710208,0.87821 l 0.654624,0.87821 0.423562,-1.38488 c 0.331315,-1.08327 0.348278,-1.90754 0.07788,-3.78487 z m 50.559592,2.54874 c 0.86209,-0.46137 0.78873,-0.81541 -0.58104,-2.80425 -1.01742,-1.477248 -1.2,-2.000988 -1.2,-3.442298 0,-1.575252 -0.0704,-1.733044 -0.96,-2.151083 -0.74958,-0.352249 -1.15107,-0.371641 -1.83173,-0.08847 l -0.87174,0.362656 1.10769,1.557987 c 1.21615,1.71054 2.34423,4.433558 2.45862,5.934728 0.0791,1.0388 0.71607,1.25269 1.8782,0.63073 z m -32.73224,-5.606878 c 1.51675,-1.06238 0.41344,-4.850058 -1.16646,-4.004516 -0.32065,0.171606 -0.97597,0.827216 -1.45626,1.456909 l -0.87326,1.144897 1.01744,0.95043 c 1.16278,1.0862 1.4886,1.14566 2.47854,0.45228 z m -4.15188,-1.08396 c -0.31909,-0.510937 -0.28876,-0.732316 0.16968,-1.238895 0.5329,-0.588848 0.51224,-0.800291 -0.4559,-4.666231 -0.94737,-3.782976 -1.05873,-4.03574 -1.6924,-3.84135 -0.37306,0.114445 -0.72883,0.252723 -0.79059,0.307286 -0.0618,0.05456 0.42995,2.340672 1.09268,5.080247 0.81264,3.359293 1.34498,4.981043 1.635,4.981043 0.34581,0 0.35394,-0.12185 0.0415,-0.6221 z m 12.99232,-3.795033 c 2.20502,-1.141549 2.36072,-1.173494 5.37778,-1.103408 2.85501,0.06632 3.17791,0.0112 3.9811,-0.67968 0.83553,-0.718688 0.84669,-0.766275 0.25299,-1.078656 -1.09424,-0.575744 -3.23124,-0.775376 -4.53683,-0.423814 -0.82085,0.22103 -1.81023,0.240048 -2.80641,0.05394 -1.47801,-0.276125 -1.67522,-0.217965 -5.00823,1.476954 -1.9083,0.970419 -3.46964,1.921206 -3.46964,2.112861 0,0.191657 0.4544,0.81728 1.00976,1.390275 l 1.00977,1.041808 0.95947,-0.807347 c 0.52772,-0.444045 1.98133,-1.336365 3.23024,-1.982935 z m 17.7787,1.704592 c 0.23074,-0.142608 0.11146,-0.466454 -0.34739,-0.943203 -0.67941,-0.70591 -0.71515,-0.709654 -1.28966,-0.135142 -0.71165,0.711651 -2.13927,0.777744 -2.39517,0.110886 -0.25382,-0.661453 -0.86724,-0.600758 -1.54968,0.153328 -0.60511,0.668637 -0.57108,0.707501 0.95396,1.08952 0.82502,0.206662 4.17003,0.0076 4.62794,-0.275389 z m 1.464,-2.487459 -0.0119,-2 -1.4945,-0.09649 c -1.93861,-0.125165 -2.36727,-0.623133 -1.85986,-2.160582 0.26421,-0.800554 0.28048,-1.26481 0.0523,-1.492957 -0.35091,-0.350909 -1.49804,-0.154698 -2.29797,0.393059 -0.41912,0.286999 -0.40898,0.370538 0.08,0.65873 0.78029,0.459875 0.69871,1.40807 -0.24,2.789504 -1.08445,1.595907 -1.0325,2.009331 0.24,1.909958 0.82151,-0.06416 1.03067,0.03643 0.99556,0.478781 -0.0629,0.791994 0.48638,0.694528 1.35247,-0.24 0.87295,-0.94193 1.34635,-1.010278 1.66228,-0.24 0.32039,0.781136 1.14837,2 1.35861,2 0.0962,0 0.16959,-0.9 0.16302,-2 z m -4.65194,-5.04 c 0,-0.176 0.216,-0.32 0.48,-0.32 0.264,0 0.48,0.144 0.48,0.32 0,0.176 -0.216,0.32 -0.48,0.32 -0.264,0 -0.48,-0.144 -0.48,-0.32 z m -24.51324,5.76 c 0.38054,0 0.50328,-0.176976 0.38837,-0.56 -0.0924,-0.308 -0.48324,-1.833773 -0.86853,-3.390608 l -0.70053,-2.830605 -0.9697,0.193939 c -0.53334,0.106669 -1.03418,0.25842 -1.11299,0.337226 -0.0788,0.07881 0.25268,1.73935 0.73664,3.690096 0.8182,3.298051 0.91815,3.512202 1.42514,3.053379 0.29988,-0.271385 0.7956,-0.493427 1.1016,-0.493427 z m 2.23701,-0.733923 c -0.14548,-1.086938 -0.0361,-1.542919 0.56803,-2.368557 0.41151,-0.562362 1.1983,-1.642362 1.74843,-2.4 1.02663,-1.413885 2.03977,-3.939363 2.03977,-5.084595 0,-0.90944 0.74129,-2.219357 1.85496,-3.277847 0.58403,-0.555097 0.89473,-1.124259 0.80372,-1.472297 -0.0816,-0.312055 0.0649,-0.780624 0.32552,-1.041264 0.41852,-0.418522 0.40395,-0.676471 -0.12471,-2.207703 -0.32922,-0.9536 -0.6033,-2.057814 -0.60904,-2.453814 -0.007,-0.465149 -0.20866,-0.722925 -0.57045,-0.728262 -0.308,-0.0045 -1.56549,-0.350778 -2.79443,-0.769412 l -2.23443,-0.761148 -2.94067,0.826534 c -2.90385,0.816182 -2.94333,0.84071 -3.15301,1.958355 -0.26114,1.392032 -0.92161,2.71304 -2.11739,4.235043 l -0.91224,1.161111 0.79609,1.173101 c 0.43784,0.645203 0.79608,1.398348 0.79608,1.673651 0,0.802496 2.90986,4.559485 3.389,4.375619 0.25594,-0.09821 0.49301,0.134355 0.59766,0.586314 0.8108,3.501523 1.75212,7.248227 1.93637,7.707257 0.39699,0.989063 0.78643,0.255184 0.60074,-1.132086 z m 3.06728,-1.020637 c 2.35763,-1.432186 4.47425,-2.389507 5.30283,-2.398413 0.35964,-0.0039 1.51631,-0.845715 2.57039,-1.870777 l 1.91651,-1.863751 -0.41692,-2.686787 c -0.22932,-1.477734 -0.52199,-2.781168 -0.65039,-2.896515 -0.12841,-0.115351 -1.11967,-0.284704 -2.2028,-0.376336 -1.89616,-0.160419 -2.00684,-0.127917 -2.97855,0.874633 -0.7586,0.782682 -1.12154,1.578116 -1.46155,3.203216 -0.48724,2.328727 -1.38231,4.084951 -3.17632,6.232237 -0.98033,1.173383 -1.53729,2.897053 -0.93611,2.897053 0.10898,0 1.02379,-0.501552 2.03291,-1.11456 z m -15.04741,-2.78855 c 0.38452,-1.792928 1.20537,-3.076596 3.48477,-5.449517 0.79915,-0.831943 1.3705,-1.595136 1.26965,-1.695981 -0.10084,-0.100848 -1.05962,0.111834 -2.13061,0.472624 -1.07099,0.36079 -2.39524,0.655984 -2.94278,0.655984 -0.96426,0 -0.98719,0.03265 -0.73009,1.04 0.14598,0.572 0.23114,2.12 0.18923,3.44 -0.11368,3.580832 0.27319,4.272323 0.85983,1.53689 z m 32.91983,0.276592 c 0.0587,-0.302468 -0.0997,-0.533482 -0.36577,-0.533482 -0.54457,0 -0.89444,-0.70721 -0.58809,-1.188749 0.3657,-0.574829 2.42274,-1.688809 3.1208,-1.690054 0.36872,-6.4e-4 0.93241,0.288323 1.25265,0.642182 0.5005,0.553043 0.53139,0.809101 0.21999,1.823725 -0.42052,1.370176 -0.20961,1.803891 0.44312,0.911232 1.061,-1.451008 -0.13455,-4.070342 -2.02258,-4.431264 -1.11058,-0.212301 -2.80367,0.476198 -3.25783,1.3248 -0.44208,0.826029 -0.44412,2.466413 -0.004,3.288611 0.3892,0.72721 1.04789,0.64664 1.2018,-0.147001 z m 8.05653,-11.287719 c 0,-8.293318 -0.0343,-8.819273 -0.56,-8.589862 -0.308,0.134406 -1.1546,0.394518 -1.88134,0.578022 l -1.32134,0.333648 -0.16344,1.802467 c -0.0899,0.991357 -0.43976,2.341076 -0.77749,2.99937 l -0.61404,1.196902 0.89882,1.78194 c 0.49436,0.980067 0.89883,2.127385 0.89883,2.549593 0,0.937018 1.00991,2.998915 2.35702,4.812263 0.55164,0.742556 1.03898,1.354556 1.08298,1.36 0.044,0.0054 0.08,-3.965511 0.08,-8.824343 z m -13.95757,7.248519 c 0.44226,-0.168144 1.0449,-0.673223 1.33921,-1.122397 0.50739,-0.774381 0.49823,-0.902426 -0.17702,-2.472071 -0.39167,-0.910464 -0.73294,-2.349228 -0.75837,-3.197254 -0.0447,-1.490666 -0.0781,-1.541712 -1.00625,-1.537312 -1.12754,0.0053 -1.43532,0.192138 -2.13683,1.296861 -0.48852,0.769299 -0.48464,0.845472 0.0604,1.185859 0.42476,0.265264 0.64455,0.9524 0.81177,2.537891 0.22044,2.09008 0.60668,3.614141 0.91591,3.614141 0.0809,0 0.50893,-0.137571 0.95118,-0.305718 z m 4.36483,-2.670823 c 0.73123,-0.929609 3.67406,-2.2596 4.51384,-2.039993 0.3294,0.08614 0.5989,0.0261 0.5989,-0.133424 0,-0.159524 -0.18257,-0.290042 -0.40572,-0.290042 -0.22314,0 -0.94727,-0.367997 -1.60917,-0.81777 -0.88643,-0.602342 -1.47294,-0.775292 -2.22648,-0.656534 -1.21252,0.191094 -1.76445,0.851795 -2.01315,2.409898 -0.10047,0.629424 -0.37948,1.686345 -0.62002,2.348713 l -0.43735,1.204307 0.79494,-0.625305 c 0.43722,-0.34392 1.06912,-0.973853 1.40421,-1.39985 z m -30.66399,-0.6888 c 1.1788,-0.249827 2.44271,-0.614486 2.80869,-0.810355 0.6455,-0.345466 0.64873,-0.38439 0.10774,-1.300214 -0.30673,-0.519248 -0.69054,-0.94409 -0.85291,-0.94409 -0.16237,0 -0.9201,0.576 -1.68385,1.28 -1.52367,1.404467 -2.67639,1.633117 -3.90275,0.774138 -0.39722,-0.278224 -1.61727,-0.630986 -2.71121,-0.783911 -1.72646,-0.24135 -2.1166,-0.429094 -2.955916,-1.422451 l -0.96694,-1.144403 -1.23217,1.261859 -1.232173,1.261856 1.363511,0.69561 c 2.926822,1.493155 7.421358,1.945068 11.257978,1.131961 z m 28.73673,-1.329437 c 0,-0.262352 0.22505,-0.912198 0.50011,-1.444099 0.41544,-0.803385 0.42899,-1.052467 0.08,-1.471395 -0.24672,-0.296157 -0.48614,-1.706461 -0.58011,-3.417011 l -0.16,-2.912717 h -0.96 c -1.3225,0 -1.52241,-0.616627 -0.24,-0.740275 1.06157,-0.102355 1.21062,-0.26953 0.7951,-0.891821 -0.7222,-1.081597 -2.70694,-1.386112 -3.84389,-0.58976 -0.94402,0.661213 -0.91748,1.421856 0.0496,1.421856 1.09019,0 1.59511,0.761632 1.38073,2.082707 -0.15354,0.946253 -0.0887,1.117293 0.42353,1.117293 0.77659,0 2.25474,0.669072 2.08497,0.94375 -0.0968,0.156669 -3.66957,0.189216 -4.25825,0.03879 -0.0485,-0.01238 0.13148,-0.447389 0.4,-0.96665 0.60917,-1.178016 0.60737,-1.234857 -0.0373,-1.180336 -0.28905,0.02445 -0.59585,-0.155936 -0.68176,-0.400845 -0.11679,-0.332924 0.0637,-0.403238 0.71548,-0.278656 0.7789,0.148896 0.82004,0.115002 0.38657,-0.31847 -0.2668,-0.266803 -0.71227,-0.39793 -0.98991,-0.291386 -0.61284,0.235165 -0.68648,2.385994 -0.13401,3.913818 0.3458,0.956285 0.45242,1.014509 1.58067,0.863178 0.66543,-0.08925 1.57467,-0.07072 2.02055,0.04119 0.7326,0.183872 0.77577,0.28007 0.44826,0.99889 -0.4157,0.912352 0.20454,4.462755 0.72359,4.141971 0.16287,-0.100659 0.29612,-0.397667 0.29612,-0.660023 z m -1.6,-8.130121 c -0.42045,-0.276007 -0.42178,-0.352531 -0.0107,-0.616797 0.52471,-0.337338 1.40169,0.183277 1.10833,0.657955 -0.22403,0.362483 -0.49839,0.352195 -1.09759,-0.04116 z m -27.22875,6.914566 1.05679,-1.090333 -0.87009,-0.570102 c -0.53638,-0.351453 -1.35155,-0.541693 -2.12546,-0.496029 -0.83515,0.04928 -1.55512,-0.139357 -2.15078,-0.563507 -0.57037,-0.406134 -1.17606,-0.573069 -1.66856,-0.459866 -3.575487,0.82185 -3.676911,0.915498 -2.387692,2.204714 0.557722,0.557725 1.137594,0.7856 2.000002,0.785952 0.668,2.75e-4 1.71854,0.270627 2.33454,0.600787 1.72714,0.925693 2.6072,0.830647 3.81125,-0.411616 z m 35.00654,-1.218934 c -0.42197,-0.722512 -0.92994,-1.096519 -1.7044,-1.254912 -0.6068,-0.124103 -1.43669,-0.613267 -1.8442,-1.087031 -0.67155,-0.780726 -0.73196,-1.121433 -0.64506,-3.638505 0.12054,-3.491696 -0.38268,-4.510285 -2.22823,-4.510285 h -1.18936 l 0.89657,0.831344 c 1.26724,1.175056 1.49689,2.005248 1.49689,5.411344 0,2.689414 0.07,3.050077 0.67449,3.473453 0.39962,0.279904 1.08426,0.411129 1.68,0.322009 0.7513,-0.112393 1.24822,0.053 1.96551,0.654205 1.30836,1.096602 1.61569,1.027581 0.89779,-0.201622 z m -12.41866,0.07023 c 0.63381,-0.700349 0.71824,-2.15951 0.18284,-3.159907 -0.43671,-0.816003 -0.43699,-3.366016 -6.4e-4,-4.937702 0.22702,-0.817527 0.67259,-1.420743 1.35822,-1.838804 1.00887,-0.615152 1.01114,-0.622172 0.20152,-0.623353 -1.37793,-0.0019 -1.99774,0.716525 -2.24046,2.597341 -0.12218,0.946803 -0.41819,2.196883 -0.6578,2.777955 -0.38337,0.929699 -0.36889,1.172841 0.12072,2.025933 0.30601,0.533193 0.55638,1.240704 0.55638,1.572249 0,0.786218 -1.0538,1.334291 -2.07343,1.078378 -0.59791,-0.150087 -0.80648,-0.07624 -0.80648,0.28559 0,1.01832 2.48964,1.183095 3.35913,0.22232 z m -19.17809,-1.360963 c 1.43839,-1.703936 2.04491,-3.388621 2.04491,-5.68 0,-4.609635 -3.16535,-7.939306 -7.84848,-8.25591 -4.909052,-0.331882 -9.077951,3.885216 -8.720876,8.821712 0.146816,2.029724 1.218378,4.456528 1.895235,4.292208 0.231059,-0.05609 1.050976,-0.219847 1.822039,-0.363898 0.771062,-0.144048 1.547682,-0.407658 1.725822,-0.585798 0.52497,-0.52497 -0.0132,-1.587364 -1.164459,-2.298903 -1.360915,-0.841091 -1.67528,-1.61312 -0.91481,-2.246608 0.318771,-0.265542 0.829251,-1.022803 1.134399,-1.682803 0.47846,-1.034829 0.70128,-1.2 1.61884,-1.2 0.58521,0 1.34354,-0.211421 1.68518,-0.469824 0.71388,-0.539949 2.24909,-0.642762 2.54116,-0.170176 0.10878,0.176 0.61795,0.32 1.13151,0.32 0.67248,0 1.08703,0.246227 1.4816,0.88 0.30132,0.484 0.96825,1.282144 1.48207,1.773651 0.75623,0.723399 0.89206,1.058701 0.71294,1.76 -0.12169,0.476493 -0.20562,1.409207 -0.18649,2.072698 0.0259,0.897421 -0.17517,1.416288 -0.78505,2.026163 -0.71057,0.71057 -0.9995,0.792608 -2.1682,0.615638 l -1.34838,-0.204182 1.28,0.787853 c 0.704,0.433318 1.3752,0.801424 1.49156,0.818016 0.11635,0.01658 0.60662,-0.437837 1.08948,-1.009837 z m 17.72762,-0.32 c -0.006,-0.22 -0.21713,-0.76 -0.46866,-1.2 -0.58844,-1.029376 -0.58438,-2.235082 0.0102,-3.021162 0.2584,-0.341638 0.46982,-1.111875 0.46982,-1.711638 0,-2.923648 2.76269,-4.981347 4.53481,-3.377603 0.54453,0.492793 0.62586,0.492793 1.17039,0 0.32371,-0.29296 1.11696,-0.529597 1.77528,-0.529597 2.21073,0 3.58602,2.399475 3.04257,5.308413 -0.31193,1.66967 -0.15693,2.544585 0.6044,3.411587 0.79941,0.910365 1.89848,0.702794 2.54157,-0.48 0.79155,-1.455843 0.79316,-6.061299 0.003,-7.514928 -2.08691,-3.837414 -6.8714,-5.581002 -10.74358,-3.915232 -1.99882,0.859866 -4.24432,3.221238 -4.78764,5.034698 -0.71527,2.387353 -0.23707,6.545875 0.91192,7.930329 0.47375,0.570839 0.9516,0.60408 0.93632,0.06513 z M 105.94623,74.4595 c 1.98822,-1.745684 2.96365,-4.430298 1.6097,-4.430298 -0.26546,0 -0.71854,-0.36 -1.00684,-0.8 -0.42661,-0.651075 -0.78419,-0.8 -1.92088,-0.8 -1.30329,0 -1.43962,0.08415 -2.03862,1.258288 -0.35306,0.692058 -0.78746,1.34823 -0.96533,1.45816 -0.20736,0.128154 -0.15043,0.534358 0.15865,1.132048 0.26512,0.512698 0.44459,1.102378 0.39883,1.3104 -0.0802,0.36424 1.81721,1.881104 2.35296,1.881104 0.14385,0 0.77904,-0.454365 1.41153,-1.009702 z m -2.40529,-0.747373 c -0.2275,-0.274115 -0.3142,-0.597818 -0.19268,-0.719341 0.27103,-0.27103 1.19995,0.277824 1.19896,0.708416 -0.001,0.5292 -0.57101,0.535386 -1.00628,0.01091 z m 0.63757,-1.267869 c 0,-0.07972 0.16869,-0.515171 0.37486,-0.96767 0.37977,-0.833495 1.54807,-1.361117 2.16695,-0.978628 0.58154,0.359408 0.36905,0.893956 -0.28714,0.722356 -0.42256,-0.1105 -0.78815,0.08494 -1.12738,0.602678 -0.43626,0.665814 -1.12729,1.04665 -1.12729,0.621264 z m 1.77367,-0.152944 c -0.10126,-0.16384 -0.0378,-0.388339 0.14111,-0.498886 0.38188,-0.236016 0.96522,0.06354 0.96522,0.49566 0,0.389376 -0.86612,0.391901 -1.10633,0.0032 z m -2.73367,-1.603226 c 0,-0.554387 0.56323,-0.65696 0.96293,-0.175363 0.32908,0.396515 0.28146,0.476477 -0.28375,0.476477 -0.37355,0 -0.67918,-0.135501 -0.67918,-0.301114 z m 5.99746,3.421114 c 0.1737,-0.22 0.39864,-1.244608 0.49987,-2.276909 0.17504,-1.784995 0.13798,-1.91567 -0.75664,-2.668445 -0.51738,-0.435347 -0.94069,-0.965939 -0.94069,-1.179091 0,-0.709341 -0.69719,-1.147465 -1.3068,-0.821213 -0.41144,0.220199 -0.71608,0.157066 -1.1014,-0.228259 -0.43848,-0.43848 -0.71113,-0.471299 -1.54222,-0.185629 -0.55527,0.190858 -1.46961,0.440528 -2.03187,0.554816 -0.79606,0.161818 -1.10045,0.444624 -1.37548,1.277968 -0.19425,0.588592 -0.59822,1.165188 -0.897706,1.281319 -0.499588,0.193728 -0.493876,0.248429 0.06923,0.662873 0.760276,0.559575 1.254396,0.212359 2.124276,-1.492755 0.71237,-1.396361 1.44247,-1.706253 3.34701,-1.420646 0.97158,0.145696 1.53442,0.440096 1.89578,0.991593 0.28266,0.431408 0.72155,0.784378 0.9753,0.784378 1.19365,0 1.21019,2.21487 0.0291,3.901066 -0.27788,0.396736 -0.50524,0.833296 -0.50524,0.970137 0,0.401882 1.17305,0.284995 1.51745,-0.151203 z m -21.427135,-1.01487 c 0.260067,-0.570778 0.255117,-1.03434 -0.01878,-1.76 -0.46359,-1.228192 -0.637798,-1.232634 -1.092554,-0.02784 -0.270384,0.716332 -0.267907,1.158694 0.0099,1.757504 0.464052,1.000451 0.657069,1.005769 1.101501,0.03034 z M 151.517,72.269202 c -6.4e-4,-0.264 -0.19498,-0.829882 -0.43187,-1.257517 l -0.4307,-0.777513 -0.4868,0.941366 c -0.43114,0.833744 -0.43267,1.044682 -0.0133,1.845005 0.44799,0.855021 0.49741,0.872029 0.91866,0.316147 0.24486,-0.323117 0.44468,-0.803488 0.44404,-1.067488 z m -34.46691,-3.554131 1.83158,-0.606999 2.38485,0.800567 c 3.16868,1.063693 3.29412,1.046921 3.55121,-0.474816 0.11851,-0.701459 0.17868,-1.385459 0.13372,-1.52 -0.045,-0.134541 -1.02928,-0.476496 -2.18735,-0.759898 -1.15807,-0.283405 -2.50159,-0.67584 -2.98559,-0.87208 -0.64718,-0.262403 -1.11282,-0.262403 -1.76,0 -0.484,0.19624 -1.85873,0.596013 -3.05496,0.888381 -1.19624,0.292371 -2.1699,0.632512 -2.16369,0.755869 0.006,0.123357 0.10449,0.807168 0.2184,1.519581 0.20035,1.25288 0.23976,1.288438 1.20369,1.085846 0.54811,-0.1152 1.82077,-0.482602 2.82814,-0.816451 z M 95.297821,66.771922 c 0.307619,-0.731923 0.523619,-1.34671 0.48,-1.366195 -0.04362,-0.01949 -0.943309,-0.261501 -1.999309,-0.537818 -1.056,-0.276313 -2.180656,-0.61479 -2.499232,-0.752166 -0.520442,-0.224423 -0.569162,-0.09203 -0.48,1.304387 0.09698,1.518954 0.131856,1.566624 1.539232,2.104214 2.078422,0.793917 2.337034,0.728164 2.959309,-0.752422 z m 50.400689,0.705898 c 1.30258,-0.591261 1.36,-0.67721 1.36,-2.03561 v -1.418285 l -2.16,0.629933 c -1.188,0.346461 -2.33483,0.683146 -2.54852,0.748189 -0.29352,0.08934 -0.27444,0.336963 0.078,1.012707 0.25661,0.491946 0.46744,1.074448 0.46852,1.294448 0.003,0.580496 1.23808,0.478493 2.80197,-0.231382 z m -29.77629,-2.434957 c 1.70404,-0.473267 2.27732,-0.89457 1.70151,-1.250435 -0.17887,-0.110548 -0.32522,-0.5525 -0.32522,-0.982112 v -0.781114 h -4.22253 -4.22253 l 1.12774,1.04 c 0.62026,0.572 1.38943,1.442822 1.70927,1.935162 0.63791,0.981955 0.82855,0.983689 4.23176,0.0385 z m 11.24633,-1.093661 1.82701,-1.92 h -4.24852 c -4.21991,0 -4.24853,0.005 -4.24853,0.736 0,0.4048 -0.16808,0.90408 -0.37351,1.10951 -0.28468,0.284679 -0.2276,0.429767 0.24,0.610064 0.75191,0.28992 4.35403,1.330157 4.71503,1.361629 0.14383,0.01254 1.08367,-0.841203 2.08852,-1.897203 z m -28.141619,-1.84 c 0.07604,-0.044 -1.757753,-0.08 -4.075085,-0.08 -5.347264,0 -5.578131,0.648115 -0.693334,1.946387 l 2.08,0.552819 1.275088,-1.169603 c 0.701296,-0.643283 1.337296,-1.205603 1.413331,-1.249603 z m 45.711579,1.540538 c 1.52106,-0.445143 2.32,-0.841085 2.32,-1.149748 0,-0.390172 -0.71024,-0.47079 -4.14761,-0.47079 h -4.1476 l 1.3476,1.269082 c 0.74119,0.697996 1.56361,1.215382 1.82761,1.149747 0.264,-0.06564 1.524,-0.424864 2.8,-0.798291 z m -25.30746,-0.522048 c 0.2667,-0.695028 -0.41038,-1.348644 -0.89503,-0.864 -0.40961,0.409612 -0.15585,1.36551 0.36249,1.36551 0.18705,0 0.42669,-0.22568 0.53254,-0.50151 z M 98.418512,57.853311 c 0,-2.168227 -0.149626,-3.505232 -0.459283,-4.104048 -0.438141,-0.847274 -2.845399,-3.240061 -3.259651,-3.240061 -0.1084,0 -1.043447,0.684 -2.077885,1.52 l -1.880794,1.52 -0.0013,3.76 -0.0011,3.76 h 3.84 3.84 z m 1.844628,-6.624109 c -0.0541,-6.29025 -0.20007,-9.84 -0.404628,-9.84 -0.20456,0 -0.350528,3.54975 -0.404624,9.84 -0.07442,8.652912 -0.0256,9.84 0.404624,9.84 0.430228,0 0.479038,-1.187088 0.404628,-9.84 z m 8.79062,6.556502 c -0.0466,-1.802076 -0.15454,-3.589312 -0.23985,-3.971635 -0.0853,-0.382323 -0.95398,-1.377629 -1.93037,-2.211789 l -1.77526,-1.516656 -1.45055,1.411789 c -2.13334,2.076339 -2.3594,2.677987 -2.358,6.275898 l 0.001,3.135891 3.91878,0.0765 3.91879,0.0765 -0.0847,-3.2765 z m 2.16475,2.781252 c 0,-1.019357 2.02794,-5.324634 4.49859,-9.550416 2.3404,-4.003008 2.54141,-4.486032 2.54141,-6.107072 0,-1.561917 0.074,-1.760266 0.65678,-1.760266 0.5918,0 0.652,0.18201 0.60856,1.84 -0.0463,1.76744 0.0538,2.009616 2.53882,6.141139 2.18423,3.631456 3.67467,6.656423 4.62108,9.378861 0.10707,0.308 0.41812,0.56 0.69121,0.56 0.43554,0 0.48591,-0.815674 0.41005,-6.64 -0.0821,-6.30153 -0.11778,-6.64007 -0.70028,-6.641357 -0.89082,-0.0019 -0.99714,-0.730297 -0.12466,-0.853971 0.71913,-0.101936 0.73844,-0.194915 0.73844,-3.5552 v -3.450528 l -8.72001,-0.06947 -8.72,-0.06947 v 3.6 c 1e-5,3.434666 0.0306,3.6 0.66668,3.6 0.39459,0 0.60959,0.163245 0.5268,0.4 -0.0769,0.22 -0.37692,0.357686 -0.66666,0.305971 -0.47536,-0.08485 -0.52681,0.563559 -0.52681,6.64 0,5.772471 0.0685,6.734029 0.48,6.734029 0.264,0 0.48,-0.22601 0.48,-0.502246 z m 7.36,-0.777754 c 0,-1.353158 -0.83962,-2.56 -1.78103,-2.56 -1.48565,0 -2.26831,1.40232 -1.25296,2.244982 0.3962,0.328823 0.59301,0.306503 1.06519,-0.120819 0.71741,-0.649245 1.0088,-0.664134 1.0088,-0.05154 0,0.259942 -0.36824,0.713904 -0.81831,1.008803 -0.77522,0.507939 -0.86371,0.502448 -1.68,-0.104269 -1.25846,-0.935353 -1.28959,-2.150124 -0.084,-3.276329 0.54026,-0.504682 0.98229,-1.030547 0.98229,-1.168592 0,-0.427255 1.36792,-1.732237 1.81578,-1.732237 0.65078,0 0.50486,0.632038 -0.29578,1.281162 -0.396,0.321059 -0.648,0.63263 -0.56,0.692374 0.088,0.05974 0.628,0.436451 1.2,0.837126 0.572,0.400672 1.04,0.597658 1.04,0.437741 0,-0.159917 0.4285,-0.468246 0.95221,-0.685174 0.79938,-0.331117 0.90029,-0.491424 0.62874,-0.998826 -0.17788,-0.332421 -0.53438,-0.604402 -0.79219,-0.604402 -0.2578,0 -0.46874,-0.216 -0.46874,-0.48 0,-0.264 0.216,-0.48 0.48,-0.48 0.55682,0 1.76,1.115418 1.76,1.631613 0,0.193385 0.432,0.755161 0.96,1.248387 1.38858,1.29712 1.28512,2.680003 -0.26146,3.494838 -0.60857,0.320634 -0.88099,0.299223 -1.52,-0.119472 -0.4282,-0.280566 -0.77854,-0.7228 -0.77854,-0.982742 0,-0.612595 0.29139,-0.597706 1.0088,0.05154 0.48078,0.435101 0.6644,0.453453 1.08064,0.108003 1.19944,-0.995443 -0.10862,-2.601308 -1.67255,-2.05334 -0.79232,0.277612 -0.91658,0.509353 -1.06577,1.987712 l -0.16888,1.673461 h 3.27468 3.27469 l -0.47734,-1.352918 c -0.59887,-1.697402 -3.79896,-7.797015 -5.39279,-10.279079 l -1.20208,-1.871993 -1.6071,2.671993 c -2.66435,4.429795 -5.0523,9.417258 -5.0523,10.552231 0,0.153872 1.44,0.279766 3.2,0.279766 h 3.2 z m 17.9188,-2.175891 c 0.001,-3.789597 -0.2742,-4.548247 -2.27394,-6.259952 -1.51379,-1.295744 -1.57239,-1.284403 -3.88486,0.751817 l -1.52,1.338416 v 3.805943 3.805942 l 3.8388,-0.07314 3.83879,-0.07314 10e-4,-3.295891 z m 1.84583,-6.384109 c -0.0541,-6.29025 -0.20007,-9.84 -0.40463,-9.84 -0.20456,0 -0.35053,3.54975 -0.40462,9.84 -0.0744,8.652912 -0.0256,9.84 0.40462,9.84 0.43023,0 0.47904,-1.187088 0.40463,-9.84 z m 8.71537,5.899869 c 0,-4.377136 0.0191,-4.334851 -2.84383,-6.301389 l -1.08384,-0.74449 -1.87616,1.941146 -1.87617,1.941149 v 3.551856 3.551859 h 3.84 3.84 z M 98.316186,42.30021 c -0.220087,-0.22009 -7.359341,3.885949 -7.318263,4.208992 0.02237,0.176 0.413706,0.366387 0.869613,0.423085 1.030672,0.128176 0.862896,0.856915 -0.197287,0.856915 -0.736502,0 -0.776044,0.106579 -0.866044,2.334278 l -0.09431,2.334279 1.750615,-1.374279 c 1.678646,-1.317782 1.751587,-1.437859 1.774307,-2.920944 0.03053,-1.9923 0.75721,-1.880179 0.983693,0.151776 0.130685,1.172461 0.423846,1.695607 1.6,2.855184 l 1.44,1.419706 0.08814,-5.08519 c 0.04848,-2.796855 0.03477,-5.138567 -0.03046,-5.203802 z m 6.467804,5.702326 c 0.0234,-0.940755 0.16058,-1.344649 0.42652,-1.256003 0.24788,0.08263 0.35652,0.621827 0.29553,1.466666 -0.0531,0.734803 0.025,1.336003 0.1735,1.336003 0.14848,0 0.98749,0.627798 1.86447,1.39511 l 1.5945,1.395111 -0.0502,-2.275111 c -0.047,-2.134166 -0.0951,-2.275539 -0.77565,-2.282051 -0.39902,-0.0038 -0.78445,-0.183821 -0.85651,-0.4 -0.08,-0.239926 0.1765,-0.393059 0.65833,-0.393059 0.52742,0 0.84644,-0.218339 0.96141,-0.65801 0.14921,-0.570569 -0.27045,-0.865174 -3.15807,-2.216976 -5.18324,-2.426464 -4.61936,-2.819734 -4.61936,3.221668 v 5.189811 l 1.72548,-1.568247 c 1.55848,-1.416464 1.72883,-1.702454 1.76,-2.954912 z m 31.60116,-5.713366 c -0.0716,-0.07154 -1.80331,0.620285 -3.84836,1.537395 -3.20747,1.4384 -3.71828,1.770173 -3.71828,2.415056 0,0.584087 0.17496,0.747581 0.8,0.747581 0.50224,0 0.8,0.180928 0.8,0.486096 0,0.358714 -0.20964,0.433482 -0.8,0.285309 -0.79808,-0.200307 -0.8,-0.195255 -0.8,2.113088 0,1.800726 0.0887,2.246109 0.4,2.008317 3.10433,-2.371367 3.12,-2.390583 3.12,-3.826365 0,-1.019063 0.12719,-1.386445 0.48,-1.386445 0.35062,0 0.48,0.362938 0.48,1.346435 0,1.188935 0.17781,1.516474 1.52,2.8 l 1.52,1.453565 0.0884,-4.924979 c 0.0486,-2.708739 0.0298,-4.983514 -0.0417,-5.055053 z m 6.49567,5.740032 c 0.0128,-0.987693 0.14909,-1.36 0.49769,-1.36 0.35404,0 0.48,0.369997 0.48,1.409981 0,1.325382 0.096,1.478953 1.6,2.559469 l 1.6,1.149484 v -2.085561 c 0,-2.064813 -0.008,-2.083568 -0.8,-1.884778 -0.60496,0.151837 -0.8,0.07531 -0.8,-0.313904 0,-0.33567 0.27826,-0.514691 0.8,-0.514691 1.57858,0 0.72378,-0.832624 -2.87458,-2.8 -2.01192,-1.1 -3.73619,-2 -3.83172,-2 -0.0955,0 -0.1737,2.317398 -0.1737,5.149773 v 5.149776 l 1.74231,-1.549776 c 1.58199,-1.407171 1.74394,-1.674912 1.76,-2.909773 z m -14.14219,-9.6 c 0.10467,-0.314272 -1.99639,-0.4 -9.80341,-0.4 -8.74335,0 -9.91429,0.0582 -9.75065,0.48464 0.16141,0.420614 1.45649,0.473456 9.80341,0.4 7.34838,-0.06467 9.64886,-0.179011 9.75065,-0.48464 z m -10.16012,-2 c 0,-0.426666 -0.21333,-0.64 -0.64,-0.64 -0.35555,0 -0.64,-0.213334 -0.64,-0.48 0,-0.266666 0.28445,-0.48 0.64,-0.48 0.47675,0 0.64,-0.213334 0.64,-0.836333 0,-0.815667 -0.0376,-0.830829 -1.52,-0.613555 -0.836,0.122528 -2.096,0.476102 -2.8,0.785722 -1.38886,0.610819 -3.36,2.143504 -3.36,2.612611 0,0.160355 1.728,0.291555 3.84,0.291555 3.62667,0 3.84,-0.03556 3.84,-0.64 z m 7.70062,-0.45873 c -1.22845,-1.26744 -3.5249,-2.343638 -5.61116,-2.62959 -1.40293,-0.192294 -1.44946,-0.171597 -1.44946,0.644826 0,0.63016 0.16187,0.843494 0.64,0.843494 0.35556,0 0.64,0.213334 0.64,0.48 0,0.266666 -0.28444,0.48 -0.64,0.48 -0.42666,0 -0.64,0.213334 -0.64,0.64 0,0.606394 0.21334,0.64 4.06278,0.64 h 4.06277 z m 70.69938,54.37873 c 0,-40.426666 0.10779,-60.96 0.32,-60.96 0.21222,0 0.32,20.533334 0.32,60.96 0,40.426668 -0.10778,60.959998 -0.32,60.959998 -0.21221,0 -0.32,-20.53333 -0.32,-60.959998 z m 109.12001,30.072538 c -3.58668,-0.98842 -6.95955,-4.15258 -8.34917,-7.83254 -0.53595,-1.41929 -0.64392,-2.31916 -0.55772,-4.64843 0.092,-2.48631 0.25128,-3.1815 1.1441,-4.9936 1.2493,-2.53565 3.53954,-4.783538 6.093,-5.980348 1.60231,-0.751 2.22762,-0.85762 5.02979,-0.85762 2.78879,0 3.43109,0.10836 4.9984,0.84325 1.89853,0.89021 4.4416,2.96348 4.4416,3.621088 0,0.21443 -0.42104,0.76501 -0.93564,1.22353 l -0.93564,0.83365 -1.17897,-1.11191 c -1.76238,-1.662138 -3.54221,-2.444858 -5.95284,-2.617908 -1.81994,-0.13065 -2.39109,-0.0298 -4,0.70603 -3.15945,1.445048 -4.91702,3.648228 -5.50622,6.902268 -0.76981,4.25156 1.3424,8.50057 5.209,10.47862 4.44768,2.27532 10.07116,-0.29735 11.18855,-5.11862 l 0.20395,-0.88 h -3.0461 -3.04609 v -1.44855 -1.44856 l 4.72,0.0886 4.72,0.0885 -0.0824,1.83447 c -0.13295,2.95915 -1.17249,5.23688 -3.40957,7.47069 -1.36842,1.36641 -2.42405,2.10844 -3.548,2.49396 -2.30114,0.78931 -5.11676,0.92751 -7.2,0.35342 z m -36.65744,-0.39254 c 0.11607,-0.308 2.72348,-4.9739 5.79424,-10.36867 3.07076,-5.39477 5.5832,-9.894768 5.5832,-9.999998 0,-0.10523 -2.232,-0.19133 -4.96,-0.19133 h -4.96 v -1.44 -1.44 h 7.52 c 4.136,0 7.51465,0.108 7.50812,0.24 -0.007,0.132 -2.64371,4.847998 -5.86039,10.479998 l -5.8485,10.24 5.86039,0.0871 5.86038,0.0871 v 1.43294 1.43294 h -8.35424 c -7.82348,0 -8.34083,-0.0356 -8.1432,-0.56 z M 214.57851,108.25167 V 96.234132 l 1.52,0.0975 1.52,0.0975 0.0844,10.479998 0.0844,10.48 h 3.51563 3.51562 v 1.44 1.44 h -5.12 -5.12 z m 13.12,0.0175 V 96.269172 h 6.41754 6.41753 l -0.0975,1.47422 -0.0975,1.47422 -4.72,-0.0489 -4.72001,-0.0489 v 3.374698 3.3747 h 4.64001 4.64 v 1.44 1.44 h -4.64 -4.64001 v 4.32 4.32 h 4.80001 4.8 v 1.44 1.44 h -6.4 -6.40001 z m 18.31611,0.08 0.0839,-11.919998 1.52,-0.0975 1.52,-0.0975 v 12.017498 12.01753 h -1.6039 -1.60389 z m 9.5239,-0.12755 V 96.174062 l 3.6,0.19368 c 4.01536,0.21602 5.41006,0.5324 6.99764,1.58736 3.19829,2.125288 3.37183,7.985338 0.31272,10.559418 -1.27125,1.06968 -3.77651,1.83465 -6.00844,1.83465 h -1.70192 v 4.96 4.96 h -1.6 -1.6 z m 8.01219,-1.47242 c 1.14801,-0.57891 1.51993,-0.98651 1.89794,-2.08 0.41351,-1.1962 0.41351,-1.52053 0,-2.69289 -0.57853,-1.64023 -1.87056,-2.378128 -4.71013,-2.690068 l -2,-0.21971 v 4.201338 4.20133 h 1.69219 c 1.11848,0 2.17627,-0.24411 3.12,-0.72 z m 26.30391,1.6 0.0839,-11.919998 1.52,-0.0975 1.52,-0.0975 v 12.017468 12.01753 h -1.6039 -1.60389 z m -14.2361,-34.260766 c -2.772,-6.743315 -5.04,-12.399267 -5.04,-12.568784 0,-0.179779 0.69433,-0.23784 1.66624,-0.139331 l 1.66625,0.168883 3.35417,8.4 c 1.8448,4.62 3.43499,8.395251 3.53376,8.38945 0.0988,-0.0058 1.68011,-3.821802 3.51409,-8.48 l 3.33451,-8.46945 h 1.73972 c 1.26082,0 1.69721,0.110109 1.58528,0.4 -0.0849,0.22 -2.33236,5.699757 -4.99424,12.177238 -2.66188,6.477482 -4.83978,11.913482 -4.83978,12.08 0,1.182208 -1.08142,-1.160454 -5.52,-11.958006 z m -26.36802,2.851184 c -4.72559,-4.999274 -8.66398,-9.103322 -8.75198,-9.120112 -0.088,-0.0168 -0.16,3.879619 -0.16,8.658682 v 8.689206 l -1.44,2.02e-4 -1.44,1.98e-4 -0.0837,-12.513072 -0.0837,-12.513075 3.14584,3.263779 c 1.73021,1.795075 5.65588,5.908038 8.7237,9.139917 l 5.57786,5.876137 0.0852,-8.516137 0.0852,-8.516141 h 1.59477 1.59478 v 12.32 c 0,6.776 -0.0576,12.32 -0.12802,12.32 -0.0704,0 -3.9944,-4.090314 -8.72,-9.089584 z m -28.91199,8.297168 c -1.94526,-0.630074 -3.50968,-1.993702 -4.65075,-4.053808 l -0.94925,-1.713776 -0.10226,-9.04 -0.10228,-9.04 h 1.62228 1.62226 l 0.002,8.08 c 9.6e-4,4.650611 0.14426,8.593027 0.33746,9.288746 1.33577,4.81008 7.92892,5.431468 10.00253,0.94272 0.65143,-1.41016 0.70517,-2.074477 0.80178,-9.911466 l 0.10356,-8.4 h 1.59934 1.59934 l -0.10289,8.72 c -0.1018,8.626358 -0.11184,8.738899 -0.93534,10.48 -1.52864,3.231933 -3.85813,4.823046 -7.32756,5.00495 -1.24696,0.06538 -2.65672,-0.07775 -3.52,-0.357366 z m 114.63646,0.06481 c -1.73124,-0.660298 -3.29962,-2.139325 -4.10672,-3.872675 -1.05975,-2.276016 -1.00573,-2.636976 0.43027,-2.87433 1.8591,-0.30729 2,-0.262749 2,0.632256 0,1.176368 2.09568,3.206243 3.60189,3.488813 2.36739,0.444125 5.03945,-1.833725 5.03692,-4.293783 -0.003,-2.092995 -0.97232,-3.13391 -4.41081,-4.732646 -3.88448,-1.806099 -5.09818,-2.714502 -5.85581,-4.382883 -1.99862,-4.401111 1.96576,-8.968128 7.3063,-8.416938 1.90602,0.19672 3.87053,1.276109 4.74132,2.605114 0.60345,0.920982 0.44544,1.28039 -0.85965,1.95527 -0.92138,0.476477 -0.98439,0.464067 -1.59687,-0.314573 -0.35068,-0.44584 -1.20115,-0.979459 -1.88992,-1.185817 -2.36905,-0.709779 -5.11337,1.007309 -5.11337,3.19935 0,1.232717 1.49741,2.466765 4.50669,3.714103 4.89644,2.029548 6.71212,4.441027 6.25555,8.30832 -0.42115,3.567219 -3.30576,6.2303 -6.98512,6.448707 -1.1409,0.06772 -2.47043,-0.05316 -3.06067,-0.278288 z m -40.90316,-0.205728 c -0.0733,-0.07333 -0.13329,-5.437332 -0.13329,-11.92 V 61.389202 h 6.5784 6.5784 l -0.0984,1.36 -0.0984,1.36 -4.88,0.08834 -4.88,0.08833 v 3.191666 3.191664 h 4.8 4.8 v 1.44 1.44 h -4.8 -4.8 v 4.311664 4.311667 l 4.88,0.08833 4.88,0.08834 v 1.373994 1.373996 l -6.34671,0.066 c -3.49068,0.0363 -6.40668,0.006 -6.48,-0.06733 z m 18.88414,0.0041 c -0.0756,-0.07558 -0.13743,-5.441428 -0.13743,-11.924096 v -11.78667 l 3.92,0.0032 c 3.46887,0.0029 4.11097,0.09204 5.5794,0.775734 2.33699,1.08809 3.40512,2.769613 3.56582,5.613527 0.18272,3.233763 -1.08156,5.339232 -3.98667,6.639209 l -1.32145,0.591319 3.63854,5.028541 c 2.00119,2.765699 3.56785,5.038144 3.48145,5.049878 -0.0864,0.01174 -0.91309,0.03364 -1.83709,0.04868 l -1.68,0.02736 -3.4575,-4.928685 c -2.13438,-3.042573 -3.69572,-4.967815 -4.08,-5.030938 -0.59425,-0.0977 -0.6225,0.12233 -0.6225,4.847696 v 4.950032 l -1.46257,0.116323 c -0.80441,0.06398 -1.52441,0.05448 -1.6,-0.02112 z m 8.06756,-13.308942 c 1.97228,-0.824074 2.7148,-4.011302 1.34128,-5.757446 -0.93082,-1.183351 -2.43775,-1.764378 -4.57599,-1.764378 h -1.77028 v 4.201334 4.201332 l 1.98624,-0.224717 c 1.09244,-0.123597 2.45087,-0.418851 3.01875,-0.656125 z m 29.36787,13.304842 c -0.0731,-0.07333 -0.13286,-5.437332 -0.13286,-11.92 V 61.389202 h 1.6039 1.60387 l -0.0839,11.88353 -0.0839,11.883532 -1.38714,0.03647 c -0.76294,0.02006 -1.44694,-0.02352 -1.52,-0.09686 z m 12.8,0 c -0.0731,-0.07333 -0.13286,-4.783725 -0.13286,-10.46754 V 64.29412 l -2.8,-0.09246 -2.8,-0.09246 -0.0984,-1.36 -0.0984,-1.36 h 7.2184 7.2184 v 1.44 1.44 h -2.71562 -2.71565 l -0.0844,10.443549 -0.0844,10.443552 -1.38714,0.03645 c -0.76294,0.02003 -1.44694,-0.02355 -1.52,-0.09688 z m 7.08867,-0.02667 c -0.11084,-0.23128 11.10928,-24.641907 11.32103,-24.630141 0.17923,0.01 10.98208,23.650205 11.14576,24.390624 0.0614,0.278032 -0.37642,0.393255 -1.44,0.378919 l -1.52832,-0.02061 -1.42186,-2.939402 -1.42185,-2.939402 h -5.38624 -5.38621 l -1.10877,2.48 c -1.5649,3.50016 -1.43229,3.357277 -3.15622,3.40096 -0.84736,0.02147 -1.57514,-0.03296 -1.61732,-0.12096 z m 15.17847,-8.905091 c 0,-0.145802 -0.76656,-1.981802 -1.70349,-4.08 -0.93693,-2.098202 -1.81002,-4.102343 -1.94019,-4.453651 -0.2281,-0.615616 -0.69603,0.320444 -3.87869,7.758742 l -0.44496,1.04 h 3.98365 c 2.19104,0 3.98368,-0.119293 3.98368,-0.265091 z m 11.65286,8.931757 c -0.0731,-0.07333 -0.13286,-4.783725 -0.13286,-10.46754 V 64.29412 l -2.8,-0.09246 -2.8,-0.09246 -0.0984,-1.36 -0.0984,-1.36 h 7.2184 7.2184 v 1.44 1.44 h -2.71562 -2.71565 l -0.0844,10.443549 -0.0844,10.443552 -1.38714,0.03645 c -0.76294,0.02003 -1.44694,-0.02355 -1.52,-0.09688 z M 264.49852,73.229202 v -11.84 h 1.6 1.6 v 11.84 11.84 h -1.6 -1.6 z m 111.25027,-8.657619 c -1.02035,-0.802618 -1.10589,-1.966775 -0.21027,-2.862381 0.89305,-0.893069 2.05974,-0.810102 2.85677,0.203155 0.80912,1.028605 0.82828,1.45504 0.10323,2.293587 -0.86791,1.003738 -1.78368,1.125511 -2.74973,0.365639 z m 9.2729,-0.0056 c -1.01328,-0.797027 -1.09623,-1.963706 -0.20317,-2.856775 0.89561,-0.895606 2.05977,-0.81008 2.86237,0.210282 0.75987,0.966022 0.63811,1.881814 -0.36564,2.749718 -0.83852,0.725069 -1.26496,0.705876 -2.29356,-0.103225 z"
       id="path839"
       inkscape:export-xdpi="300"
       inkscape:export-ydpi="300" />
  </g>
</svg>
